<svg width="507" height="285" viewBox="0 0 507 285" fill="none" xmlns="http://www.w3.org/2000/svg">
<path d="M0.333008 20C0.333008 8.9543 9.28731 0 20.333 0H482.302C493.229 0 502.133 8.77008 502.299 19.696L506.024 264.696C506.194 275.859 497.191 285 486.027 285H20.333C9.28731 285 0.333008 276.046 0.333008 265V20Z" fill="#716A6A"/>
<path d="M52.5773 33.2849C41.1154 20.3862 50.272 0 67.5275 0H429.519C449.857 0 457.214 26.8274 439.721 37.2022L380.961 72.0511C370.983 77.9689 368.117 91.1071 374.723 100.643L480.701 253.61C489.891 266.874 480.397 285 464.261 285H107.938C86.8211 285 80.1158 256.523 99.014 247.101L175.121 209.156C186.906 203.28 189.895 187.816 181.148 177.972L52.5773 33.2849Z" fill="#130202"/>
<g style="mix-blend-mode:hard-light" filter="url(#filter0_d_0_1)">
<path d="M114.477 113C115.846 113 116.995 113.352 117.923 114.055C118.872 114.758 119.833 115.9 120.805 117.483L119.082 121.504C117.691 119.262 116.222 118.142 114.675 118.142C112.776 118.142 111.24 119.592 110.07 122.492C108.921 125.393 108.347 130.051 108.347 136.467C108.347 142.707 108.921 147.322 110.07 150.31C111.218 153.254 112.743 154.727 114.642 154.727C115.614 154.727 116.465 154.397 117.194 153.738C117.923 153.079 118.696 152.156 119.513 150.969L121.07 154.924C120.364 156.374 119.458 157.583 118.353 158.55C117.249 159.517 115.979 160 114.543 160C112.687 160 111.031 159.099 109.573 157.297C108.137 155.452 107.01 152.771 106.193 149.255C105.398 145.696 105 141.433 105 136.467C105 131.501 105.42 127.26 106.259 123.745C107.099 120.185 108.236 117.504 109.672 115.703C111.108 113.901 112.709 113 114.477 113ZM141.952 113C143.874 113 145.553 113.923 146.989 115.769C148.447 117.57 149.573 120.229 150.369 123.745C151.186 127.26 151.595 131.523 151.595 136.533C151.595 141.455 151.186 145.674 150.369 149.189C149.573 152.705 148.447 155.386 146.989 157.231C145.553 159.077 143.874 160 141.952 160C140.03 160 138.341 159.099 136.883 157.297C135.447 155.496 134.32 152.837 133.503 149.321C132.708 145.806 132.31 141.565 132.31 136.599C132.31 131.721 132.708 127.502 133.503 123.943C134.32 120.383 135.458 117.68 136.916 115.835C138.374 113.945 140.053 113 141.952 113ZM141.952 118.142C139.964 118.142 138.418 119.636 137.313 122.624C136.209 125.612 135.657 130.271 135.657 136.599C135.657 142.883 136.209 147.497 137.313 150.442C138.44 153.386 139.986 154.858 141.952 154.858C146.149 154.858 148.248 148.75 148.248 136.533C148.248 124.272 146.149 118.142 141.952 118.142ZM185.924 159.209H182.875L182.08 138.708C181.749 130.666 181.561 124.492 181.517 120.185L176.58 154.067H173.631L168.428 120.119C168.428 125.612 168.285 131.963 167.998 139.17L167.236 159.209H164.253L166.142 113.791H170.383L175.188 146.816L179.76 113.791H184.035L185.924 159.209ZM203.219 113.791V159.209H200.071V113.791H203.219ZM234.617 159.209H230.408L221.131 120.647C221.263 123.679 221.363 126.491 221.429 129.084C221.517 131.633 221.561 134.731 221.561 138.379V159.209H218.612V113.791H222.721L232.098 152.419C232.032 151.277 231.944 149.277 231.833 146.421C231.723 143.564 231.668 140.95 231.668 138.576V113.791H234.617V159.209ZM258.416 113C259.852 113 261.089 113.417 262.127 114.252C263.187 115.043 264.236 116.296 265.275 118.01L263.419 121.833C262.602 120.515 261.818 119.57 261.066 118.999C260.315 118.427 259.432 118.142 258.416 118.142C257.245 118.142 256.163 118.779 255.168 120.053C254.197 121.284 253.401 123.283 252.783 126.052C252.164 128.777 251.855 132.248 251.855 136.467C251.855 142.839 252.374 147.497 253.412 150.442C254.473 153.386 256.03 154.858 258.084 154.858C259.763 154.858 261.21 154.177 262.425 152.815V139.104H258.383L258.018 134.028H265.54V155.979C263.176 158.66 260.691 160 258.084 160C255.08 160 252.728 158 251.027 154.001C249.348 150.002 248.508 144.158 248.508 136.467C248.508 131.545 248.95 127.326 249.834 123.811C250.739 120.251 251.943 117.57 253.445 115.769C254.97 113.923 256.626 113 258.416 113ZM320.382 113C321.906 113 323.209 113.439 324.292 114.318C325.374 115.153 326.424 116.472 327.44 118.274L325.717 122.097C324.855 120.734 324.005 119.746 323.165 119.13C322.348 118.471 321.464 118.142 320.514 118.142C319.322 118.142 318.339 118.691 317.566 119.79C316.792 120.888 316.406 122.492 316.406 124.602C316.406 125.92 316.538 127.041 316.803 127.964C317.068 128.842 317.554 129.655 318.261 130.403C318.99 131.15 320.04 131.941 321.409 132.776C322.845 133.655 324.038 134.599 324.988 135.61C325.938 136.621 326.7 138.027 327.274 139.829C327.87 141.587 328.169 143.828 328.169 146.553C328.169 149.189 327.837 151.518 327.175 153.54C326.534 155.562 325.595 157.144 324.358 158.286C323.143 159.429 321.696 160 320.017 160C316.859 160 314.274 158.044 312.264 154.133L313.987 150.31C314.915 151.804 315.854 152.947 316.803 153.738C317.753 154.485 318.814 154.858 319.984 154.858C321.398 154.858 322.569 154.177 323.497 152.815C324.424 151.409 324.888 149.387 324.888 146.75C324.888 145.256 324.745 144.026 324.458 143.059C324.17 142.048 323.673 141.147 322.966 140.356C322.282 139.565 321.277 138.774 319.951 137.983C317.61 136.577 315.898 134.885 314.815 132.907C313.733 130.93 313.192 128.249 313.192 124.865C313.192 122.58 313.49 120.537 314.086 118.735C314.705 116.933 315.555 115.527 316.638 114.516C317.742 113.505 318.99 113 320.382 113ZM349.724 113C351.646 113 353.325 113.923 354.761 115.769C356.219 117.57 357.345 120.229 358.14 123.745C358.958 127.26 359.367 131.523 359.367 136.533C359.367 141.455 358.958 145.674 358.14 149.189C357.345 152.705 356.219 155.386 354.761 157.231C353.325 159.077 351.646 160 349.724 160C347.802 160 346.113 159.099 344.655 157.297C343.219 155.496 342.092 152.837 341.275 149.321C340.48 145.806 340.082 141.565 340.082 136.599C340.082 131.721 340.48 127.502 341.275 123.943C342.092 120.383 343.23 117.68 344.688 115.835C346.146 113.945 347.825 113 349.724 113ZM349.724 118.142C347.736 118.142 346.19 119.636 345.085 122.624C343.981 125.612 343.429 130.271 343.429 136.599C343.429 142.883 343.981 147.497 345.085 150.442C346.212 153.386 347.758 154.858 349.724 154.858C353.921 154.858 356.02 148.75 356.02 136.533C356.02 124.272 353.921 118.142 349.724 118.142ZM381.436 113C383.357 113 385.036 113.923 386.472 115.769C387.93 117.57 389.057 120.229 389.852 123.745C390.669 127.26 391.078 131.523 391.078 136.533C391.078 141.455 390.669 145.674 389.852 149.189C389.057 152.705 387.93 155.386 386.472 157.231C385.036 159.077 383.357 160 381.436 160C379.514 160 377.824 159.099 376.366 157.297C374.93 155.496 373.804 152.837 372.986 149.321C372.191 145.806 371.793 141.565 371.793 136.599C371.793 131.721 372.191 127.502 372.986 123.943C373.804 120.383 374.941 117.68 376.399 115.835C377.857 113.945 379.536 113 381.436 113ZM381.436 118.142C379.448 118.142 377.901 119.636 376.797 122.624C375.692 125.612 375.14 130.271 375.14 136.599C375.14 142.883 375.692 147.497 376.797 150.442C377.923 153.386 379.47 154.858 381.436 154.858C385.633 154.858 387.731 148.75 387.731 136.533C387.731 124.272 385.633 118.142 381.436 118.142ZM421 159.209H416.792L407.514 120.647C407.647 123.679 407.746 126.491 407.812 129.084C407.901 131.633 407.945 134.731 407.945 138.379V159.209H404.996V113.791H409.105L418.482 152.419C418.416 151.277 418.327 149.277 418.217 146.421C418.106 143.564 418.051 140.95 418.051 138.576V113.791H421V159.209Z" fill="white"/>
</g>
<defs>
<filter id="filter0_d_0_1" x="101" y="113" width="324" height="55" filterUnits="userSpaceOnUse" color-interpolation-filters="sRGB">
<feFlood flood-opacity="0" result="BackgroundImageFix"/>
<feColorMatrix in="SourceAlpha" type="matrix" values="0 0 0 0 0 0 0 0 0 0 0 0 0 0 0 0 0 0 127 0" result="hardAlpha"/>
<feOffset dy="4"/>
<feGaussianBlur stdDeviation="2"/>
<feComposite in2="hardAlpha" operator="out"/>
<feColorMatrix type="matrix" values="0 0 0 0 0 0 0 0 0 0 0 0 0 0 0 0 0 0 0.25 0"/>
<feBlend mode="normal" in2="BackgroundImageFix" result="effect1_dropShadow_0_1"/>
<feBlend mode="normal" in="SourceGraphic" in2="effect1_dropShadow_0_1" result="shape"/>
</filter>
</defs>
</svg>
