<svg width="50" height="40" viewBox="0 0 50 40" fill="none" xmlns="http://www.w3.org/2000/svg">
<g clip-path="url(#clip0_104_74)">
<rect width="50" height="40" fill="#232323"/>
<path d="M50 38.9627C48.1812 39.6003 47.0562 38.9906 46.0471 36.901L38.8688 23.2068L37.8312 21.3106L29.4484 36.9465C28.4907 38.8277 27.4861 39.6458 25.6984 38.9803L36.4328 19.1108L26.4391 1.16293C28.1577 0.702201 29.3453 0.936446 30.3998 3.05913L37.8451 16.924L45.3451 3.13462C46.3059 1.25343 47.339 0.538799 49.064 1.23171L45.1891 8.31593L39.9391 17.7421C39.314 18.8192 39.3998 19.5566 39.9751 20.5965L50 38.9627ZM0.01275 18.7789L0.890627 12.8235C3.28126 1.0378 13.0782 -3.85962 19.8345 3.42265C23.7829 7.70576 24.7643 13.7646 24.5689 20.5515H2.31263C1.9785 32.7679 8.35502 40.1406 16.4843 36.3793C19.3358 35.0586 21.0154 31.9793 21.8562 28.1274C22.2829 26.1971 22.9887 25.8951 24.3046 26.4469C23.6329 31.2647 22.1172 35.2892 18.9139 37.808C14.1282 41.5782 7.29639 40.3588 3.70313 35.1191C1.56225 32.0786 0.678002 28.2267 0.281251 24.107C0.218626 23.426 0.0937502 22.7776 0 22.125C0.00825002 21.0101 0.01275 19.8958 0.01275 18.7809V18.7789V18.7789ZM2.35313 17.9603H22.4656C22.3343 9.12674 18.3454 2.85229 12.8937 2.79903C6.90939 2.73439 2.61226 8.8594 2.35276 17.9603H2.35313V17.9603Z" fill="white"/>
</g>
<defs>
<clipPath id="clip0_104_74">
<rect width="50" height="40" fill="white"/>
</clipPath>
</defs>
</svg>
