<svg width="42" height="39" viewBox="0 0 42 39" fill="none" xmlns="http://www.w3.org/2000/svg">
<path d="M11.4955 0.5H30.9209C34.5544 0.5 37.5 3.44557 37.5 7.07912V24.1837C37.5 24.4673 37.3689 24.735 37.1449 24.9088C36.9131 25.0888 36.6092 25.1471 36.3272 25.0656L31.0356 23.5363C27.3314 22.4658 23.3373 23.4288 20.5279 26.0697C18.2544 28.2069 15.1076 29.1493 12.0336 28.6136L9.48865 28.1701C6.51515 27.2035 4.5 24.4317 4.5 21.3025V7.49554C4.5 3.63201 7.63201 0.5 11.4955 0.5Z" fill="#130202" stroke="#3B82F6"/>
<g filter="url(#filter0_d_0_1)">
<path d="M4 21.8893C4 17.7615 9.58232 16.4758 11.388 20.1877V20.1877C12.4784 22.4293 15.3663 23.0812 17.3139 21.5253L22.7093 17.2151C28.8747 12.2899 38 16.6796 38 24.5707V25.7187V25.7187C38 28.6355 35.6355 31 32.7187 31H8.86728C6.17916 31 4 28.8208 4 26.1327V21.8893Z" fill="#3B82F6"/>
</g>
<path d="M14 9C14 7.34315 15.3431 6 17 6V6C18.6569 6 20 7.34315 20 9V24V24C16.6863 24 14 21.3137 14 18V9Z" fill="white" fill-opacity="0.73"/>
<path d="M20 18H26C27.6569 18 29 19.3431 29 21V21C29 22.6569 27.6569 24 26 24H20V18Z" fill="white" fill-opacity="0.73"/>
<defs>
<filter id="filter0_d_0_1" x="0" y="15.1385" width="42" height="23.8615" filterUnits="userSpaceOnUse" color-interpolation-filters="sRGB">
<feFlood flood-opacity="0" result="BackgroundImageFix"/>
<feColorMatrix in="SourceAlpha" type="matrix" values="0 0 0 0 0 0 0 0 0 0 0 0 0 0 0 0 0 0 127 0" result="hardAlpha"/>
<feOffset dy="4"/>
<feGaussianBlur stdDeviation="2"/>
<feComposite in2="hardAlpha" operator="out"/>
<feColorMatrix type="matrix" values="0 0 0 0 0 0 0 0 0 0 0 0 0 0 0 0 0 0 0.25 0"/>
<feBlend mode="normal" in2="BackgroundImageFix" result="effect1_dropShadow_0_1"/>
<feBlend mode="nrmal" in="SourceGraphic" in2="effect1_dropShadow_0_1" result="shape"/>
</filter>
</defs>
</svg>
<svg width="518" height="462" viewBox="0 0 518 462" fill="none" xmlns="http://www.w3.org/2000/svg">
<path d="M80 0.5H439.833C456.87 0.5 469.6 0.500964 479.438 1.76235C489.264 3.02208 496.135 5.53159 501.493 10.498C502.188 11.1421 502.858 11.8122 503.502 12.5071C508.468 17.8649 510.978 24.736 512.238 34.5617C513.499 44.4004 513.5 57.13 513.5 74.1667V358.562C513.5 365.003 510.505 371.077 505.397 374.999C500.19 378.996 493.397 380.289 487.085 378.486L363.286 343.105L363.26 343.098C353.213 340.226 345.641 338.063 339.37 336.91C333.082 335.755 328.063 335.608 323.119 336.793C318.175 337.978 313.768 340.385 308.688 344.265C303.62 348.136 297.853 353.497 290.2 360.612L290.18 360.63L227.377 419.011C213.811 431.622 207.141 437.805 198.756 440.3C190.37 442.794 181.405 441.262 163.151 438.116L84.6449 424.588L57.2241 415.911C44.4177 411.859 34.8537 408.833 27.5704 405.569C20.299 402.312 15.3491 398.839 11.7471 393.921C8.14517 389.003 6.32711 383.236 5.41468 375.321C4.50077 367.393 4.5 357.361 4.5 343.929V111.184V76C4.5 58.0725 4.50106 44.6772 5.88678 34.3703C7.27057 24.0778 10.0269 16.9401 15.4835 11.4835C20.9401 6.02691 28.0778 3.27057 38.3703 1.88678C48.6772 0.501062 62.0725 0.5 80 0.5Z" fill="#130202" stroke="#3B82F6"/>
<g filter="url(#filter0_d_0_1)">
<path d="M4 302.136C4 245.075 80.9834 227.011 106.364 278.117L117.257 300.05C132.469 330.681 171.963 339.635 198.898 318.559L426.723 140.292C462.17 112.556 514 137.811 514 182.82V376.406V400C514 429.823 489.823 454 460 454H58C28.1766 454 4 429.823 4 400V302.136Z" fill="#3B82F6"/>
</g>
<path d="M158 133.5C158 108.923 177.923 89 202.5 89V89C227.077 89 247 108.923 247 133.5V357H233C191.579 357 158 323.421 158 282V133.5Z" fill="white" fill-opacity="0.73"/>
<path d="M247 267H331C355.853 267 376 287.147 376 312V312C376 336.853 355.853 357 331 357H247V267Z" fill="white" fill-opacity="0.73"/>
<defs>
<filter id="filter0_d_0_1" x="0" y="128.72" width="518" height="333.28" filterUnits="userSpaceOnUse" color-interpolation-filters="sRGB">
<feFlood flood-opacity="0" result="BackgroundImageFix"/>
<feColorMatrix in="SourceAlpha" type="matrix" values="0 0 0 0 0 0 0 0 0 0 0 0 0 0 0 0 0 0 127 0" result="hardAlpha"/>
<feOffset dy="4"/>
<feGaussianBlur stdDeviation="2"/>
<feComposite in2="hardAlpha" operator="out"/>
<feColorMatrix type="matrix" values="0 0 0 0 0 0 0 0 0 0 0 0 0 0 0 0 0 0 0.25 0"/>
<feBlend mode="normal" in2="BackgroundImageFix" result="effect1_dropShadow_0_1"/>
<feBlend mode="normal" in="SourceGraphic" in2="effect1_dropShadow_0_1" result="shape"/>
</filter>
</defs>
</svg>
