<svg width="42" height="39" viewBox="0 0 42 39" fill="none" xmlns="http://www.w3.org/2000/svg">
<path d="M11.4955 0.5H30.9209C34.5544 0.5 37.5 3.44557 37.5 7.07912V24.1837C37.5 24.4673 37.3689 24.735 37.1449 24.9088C36.9131 25.0888 36.6092 25.1471 36.3272 25.0656L31.0356 23.5363C27.3314 22.4658 23.3373 23.4288 20.5279 26.0697C18.2544 28.2069 15.1076 29.1493 12.0336 28.6136L9.48865 28.1701C6.51515 27.2035 4.5 24.4317 4.5 21.3025V7.49554C4.5 3.63201 7.63201 0.5 11.4955 0.5Z" fill="#130202" stroke="#3B82F6"/>
<g filter="url(#filter0_d_0_1)">
<path d="M4 21.8893C4 17.7615 9.58232 16.4758 11.388 20.1877V20.1877C12.4784 22.4293 15.3663 23.0812 17.3139 21.5253L22.7093 17.2151C28.8747 12.2899 38 16.6796 38 24.5707V25.7187V25.7187C38 28.6355 35.6355 31 32.7187 31H8.86728C6.17916 31 4 28.8208 4 26.1327V21.8893Z" fill="#3B82F6"/>
</g>
<path d="M14 9C14 7.34315 15.3431 6 17 6V6C18.6569 6 20 7.34315 20 9V24V24C16.6863 24 14 21.3137 14 18V9Z" fill="white" fill-opacity="0.73"/>
<path d="M20 18H26C27.6569 18 29 19.3431 29 21V21C29 22.6569 27.6569 24 26 24H20V18Z" fill="white" fill-opacity="0.73"/>
<defs>
<filter id="filter0_d_0_1" x="0" y="15.1385" width="42" height="23.8615" filterUnits="userSpaceOnUse" color-interpolation-filters="sRGB">
<feFlood flood-opacity="0" result="BackgroundImageFix"/>
<feColorMatrix in="SourceAlpha" type="matrix" values="0 0 0 0 0 0 0 0 0 0 0 0 0 0 0 0 0 0 127 0" result="hardAlpha"/>
<feOffset dy="4"/>
<feGaussianBlur stdDeviation="2"/>
<feComposite in2="hardAlpha" operator="out"/>
<feColorMatrix type="matrix" values="0 0 0 0 0 0 0 0 0 0 0 0 0 0 0 0 0 0 0.25 0"/>
<feBlend mode="normal" in2="BackgroundImageFix" result="effect1_dropShadow_0_1"/>
<feBlend mode="normal" in="SourceGraphic" in2="effect1_dropShadow_0_1" result="shape"/>
</filter>
</defs>
</svg>
