<svg width="21" height="52" viewBox="0 0 21 52" fill="none" xmlns="http://www.w3.org/2000/svg">
<path d="M10.3538 0.142365L11.6015 2.74868C11.882 3.22954 12.186 3.65541 12.5437 4.05203C13.5883 5.21381 14.5803 6.43058 15.4716 7.73393C17.5854 10.8211 19.0115 14.2495 20.0294 17.9572C20.6403 20.2222 20.9716 22.5458 20.9965 24.8951C21.0986 31.9192 18.9336 37.9505 14.5687 42.9626C13.8558 43.7555 13.0931 44.4898 12.2751 45.1431C11.8427 45.1431 11.6379 44.7741 11.4598 44.4348C11.1284 43.8124 10.925 43.1022 10.823 42.3956C10.6694 41.5454 10.5688 40.696 10.6186 39.8185V39.4223C10.5835 39.3377 10.2023 0.34243 10.3542 0.142754V0.143144L10.3538 0.142365Z" fill="#599636"/>
<path d="M10.3538 0.0558017C10.3026 -0.0576858 10.2518 0.0281123 10.2003 0.0834911C10.2252 0.652098 10.0467 1.15909 9.7679 1.64346C9.46108 2.12432 9.05502 2.49364 8.64721 2.88987C6.38303 5.07031 4.60065 7.70431 3.17314 10.6499C1.27399 14.6146 0.294966 18.8631 0.0175983 23.3363C-0.109339 24.9497 0.476605 30.6432 0.933859 32.2859C2.18149 36.6467 4.42252 40.301 7.32524 43.4724C8.03812 44.236 8.8008 44.9442 9.58977 45.6251C9.8191 45.6251 9.84399 45.3978 9.89624 45.2285C9.99618 44.8666 10.0737 44.4969 10.1256 44.1233L10.6368 39.8763L10.3535 0.0558017H10.3538Z" fill="#6CAC48"/>
<path d="M11.6015 46.868C11.6527 46.2179 11.9332 45.6785 12.2386 45.1408C11.9318 44.9996 11.7039 44.7184 11.5257 44.4048C11.3722 44.1221 11.2452 43.7824 11.146 43.4704C10.7894 42.2809 10.7136 41.033 10.6112 39.8178V39.0818C10.4843 39.1953 10.4577 40.1574 10.4577 40.3006C10.3865 41.5817 10.2283 42.8667 9.999 44.1244C9.9229 44.6345 9.87206 45.1431 9.58978 45.5963C9.58978 45.6532 9.58978 45.7097 9.61468 45.7948C10.0733 47.2962 10.1992 48.825 10.2764 50.3834V50.952C10.2764 51.631 10.2515 51.4879 10.7585 51.7156C10.9629 51.8002 11.1909 51.8291 11.3953 51.9984C11.5489 51.9984 11.5738 51.8572 11.5738 51.7433L11.4977 50.8089V48.2026C11.4728 47.7475 11.5489 47.2958 11.5997 46.8704L11.6015 46.868V46.868Z" fill="#C2BFBF"/>
</svg>
