<svg width="54" height="53" viewBox="0 0 54 53" fill="none" xmlns="http://www.w3.org/2000/svg">
<g clip-path="url(#clip0_104_98)">
<path d="M12.9814 48.2872H10.8984C10.8281 43.2197 10.626 38.4393 10.292 33.9461L7.10156 48.2872H5.51514L2.35986 33.9461C2.12842 38.2493 1.98193 43.0296 1.92041 48.2872H0C0.123047 41.8894 0.430664 35.8908 0.922852 30.2911H3.51563L6.52149 43.511L9.54492 30.2911H12.0147C12.5537 36.8451 12.873 42.8438 12.9727 48.2872H12.9814Z" fill="#00758F"/>
<path d="M22.021 35.0103C21.1743 41.653 20.0552 46.4882 18.6636 49.5161C17.5825 51.8429 16.396 53.0042 15.104 53C14.665 52.9696 14.234 52.8191 13.834 52.5566V50.954C14.1253 51.0094 14.419 51.0348 14.7129 51.03C15.2439 51.0657 15.7643 50.8073 16.1675 50.3079C16.3703 50.0681 16.5346 49.7679 16.6492 49.4278C16.7637 49.0877 16.8258 48.7159 16.8311 48.3379C16.7456 47.2899 16.573 46.2606 16.3169 45.272L14.0317 35.0103H16.0752L17.7188 42.6876C18.0879 44.4317 18.2417 45.6479 18.1802 46.3362C19.1096 42.6788 19.7408 38.8779 20.061 35.0103H22.021Z" fill="#00758F"/>
<path d="M31.1484 43.2957C31.1614 44.0077 31.0639 44.715 30.8632 45.3659C30.6625 46.0168 30.3636 46.595 29.9883 47.0583C29.1105 48.0834 28.0008 48.6045 26.8726 48.5216C25.6033 48.5039 24.3678 47.9294 23.3306 46.8746L23.8667 45.329C24.6881 45.9772 25.6028 46.3415 26.5386 46.3932C27.1635 46.4436 27.7822 46.1917 28.2964 45.6774C28.51 45.4434 28.6826 45.1404 28.8001 44.7927C28.9176 44.4451 28.9769 44.0625 28.9731 43.6757C28.9731 42.6116 28.459 41.6994 27.5098 40.9329C26.6309 40.2362 24.873 38.7919 24.873 38.7919C24.4243 38.3957 24.0562 37.8354 23.8061 37.1679C23.5561 36.5004 23.4329 35.7495 23.4492 34.9913C23.4335 34.3253 23.5207 33.6626 23.7047 33.0512C23.8886 32.4399 24.1646 31.8952 24.5127 31.4567C25.2756 30.5279 26.2528 30.0464 27.2505 30.1074C28.3694 30.0939 29.4659 30.559 30.4014 31.444L29.9487 32.9389C29.1942 32.4564 28.3791 32.202 27.5537 32.1915C27.024 32.1311 26.4977 32.3569 26.0771 32.8249C25.9036 33.0345 25.7638 33.2961 25.6674 33.5914C25.571 33.8868 25.5204 34.2088 25.519 34.5352C25.519 35.5994 26.0464 36.5242 27.0176 37.3033C27.8965 37.9938 29.6895 39.4697 29.6895 39.4697C30.665 40.4642 31.1484 41.5284 31.1484 43.2703V43.2957Z" fill="#F29111"/>
<path fill-rule="evenodd" clip-rule="evenodd" d="M34.8706 44.6829C34.3696 43.5111 34.1147 41.6297 34.1147 39.039C34.1147 34.5035 35.0684 32.2379 36.9756 32.2422C37.4095 32.1994 37.8432 32.3278 38.2303 32.6135C38.6174 32.8992 38.9433 33.3314 39.1729 33.8638C39.6797 35.0335 39.9316 36.9001 39.9287 39.4634C39.9287 44.0326 38.9766 46.3151 37.0723 46.3109C36.6385 46.3522 36.2051 46.2232 35.8182 45.9377C35.4313 45.6521 35.1053 45.2207 34.875 44.6893L34.8706 44.6829ZM42.2842 48.7179L39.9902 47.09C40.1977 46.8481 40.3889 46.5788 40.5615 46.2855C41.5342 44.6344 42.0205 42.1914 42.0205 38.9566C42.0205 33.0023 40.4092 30.0251 37.1865 30.0251C36.4872 29.971 35.7885 30.1483 35.1441 30.5436C34.4997 30.9389 33.9266 31.5416 33.4688 32.3055C32.499 33.9609 32.0142 36.3954 32.0142 39.6091C32.0142 42.8227 32.4448 45.1453 33.3062 46.5769C34.0884 47.9071 35.2749 48.5786 36.8613 48.5786C37.4125 48.5855 37.9615 48.4789 38.4917 48.2619L41.4712 50.764L42.2842 48.7433V48.7179Z" fill="#F29111"/>
<path d="M49.7549 48.2872H43.8354V30.2911H45.8262V46.0702H49.7549V48.2872Z" fill="#F29111"/>
<path d="M51.1743 48.2809H51.5039V46.4502H51.9434V46.0765H50.7305V46.4502H51.1699V48.2809H51.1743ZM53.688 48.2809H54V46.0765H53.5298L53.1475 47.5841L52.7344 46.0765H52.2949V48.2809H52.5894V46.6086L53.0288 48.2809H53.2529L53.6924 46.6086V48.2809H53.688Z" fill="#F29111"/>
<path fill-rule="evenodd" clip-rule="evenodd" d="M52.2554 24.2671C51.2625 24.1756 50.2675 24.3916 49.3374 24.9005C49.1133 25.0336 48.7529 25.0336 48.7222 25.4453C48.8408 25.6163 48.854 25.9014 48.9639 26.1421C49.1675 26.6455 49.4307 27.0936 49.7417 27.466C50.0581 27.8144 50.3745 28.1628 50.7085 28.4668C51.293 28.9862 51.9565 29.2903 52.5234 29.816C52.8574 30.1201 53.187 30.5065 53.521 30.8359C53.6836 31.0069 53.7891 31.292 54 31.3997V31.3363C53.8945 31.1399 53.8638 30.8549 53.7583 30.6395L53.3188 30.0061C52.8774 29.1637 52.3499 28.4226 51.7544 27.808C51.271 27.3266 50.2163 26.6742 50.0229 25.9077L49.9922 25.8634C50.3446 25.7902 50.6917 25.6715 51.0293 25.5087C51.5435 25.3186 52.0093 25.363 52.5322 25.1666C52.7739 25.0779 53.0156 24.9702 53.2573 24.8625V24.6662C52.9849 24.2734 52.7915 23.754 52.5059 23.3993C51.7259 22.4197 50.896 21.5261 50.0229 20.7262C49.5571 20.2954 48.9551 20.0104 48.4585 19.643C48.2783 19.51 47.9795 19.4466 47.874 19.2249C47.6262 18.7013 47.4185 18.1406 47.2544 17.5526C46.8149 16.3618 46.3755 15.0189 46.0239 13.752C45.8047 12.889 45.5509 12.0451 45.2637 11.2246C43.8652 7.79955 41.8462 4.98791 39.4233 3.09118C38.8145 2.66418 38.1663 2.36552 37.4985 2.20436C37.125 2.20436 36.7471 2.13468 36.3735 2.11568C36.1294 1.88738 35.8973 1.63331 35.6792 1.35555C34.8003 0.570082 32.603 -1.12121 31.979 1.11484C31.5747 2.53375 32.581 3.92098 32.9282 4.63677C33.2183 5.14324 33.4744 5.68835 33.6929 6.26472C33.7983 6.63845 33.8291 7.03118 33.9346 7.41758C34.1552 8.41025 34.4164 9.38323 34.7168 10.3314C34.8796 10.8003 35.0661 11.2512 35.2749 11.6806C35.3935 11.9213 35.6045 12.029 35.6484 12.4218C35.4834 12.9394 35.3681 13.4871 35.3057 14.0497C34.7607 16.5075 34.9717 19.548 35.7451 21.3533C35.9824 21.898 36.5581 23.0952 37.3227 22.6202C37.9995 22.2338 37.8501 20.9922 38.0478 19.909C38.0918 19.643 38.0478 19.472 38.1489 19.2756V19.3136C38.3599 19.947 38.5884 20.5108 38.7685 21.1189C39.302 22.2507 39.9612 23.2481 40.7197 24.0707C41.0801 24.4635 41.3657 25.1349 41.8184 25.3756V25.3376H41.7876C41.6857 25.1706 41.569 25.0236 41.4404 24.9005C41.1549 24.4978 40.8933 24.0613 40.6582 23.5957C40.0204 22.347 39.4574 21.0226 38.9751 19.6367C38.7334 18.9589 38.5356 18.2177 38.3291 17.5463C38.2368 17.2866 38.2368 16.9129 38.0874 16.7672C37.8036 17.2092 37.5572 17.6982 37.3535 18.2241C37.1019 19.283 36.954 20.3874 36.9141 21.5053C36.8525 21.5053 36.8833 21.5053 36.8525 21.5496C36.3735 21.3723 36.2065 20.6565 36.0264 20.0484C35.5577 18.1834 35.51 16.1525 35.8901 14.2461C35.9956 13.79 36.4482 12.3457 36.2637 11.9213C36.1758 11.5033 35.8726 11.2879 35.71 10.9395C35.4986 10.5038 35.3175 10.0392 35.1694 9.55227C34.8091 8.32973 34.6245 6.98684 34.2378 5.75163C34.018 5.16535 33.7652 4.60605 33.4819 4.07934C33.169 3.55564 32.8923 2.9892 32.6558 2.38806C32.581 2.14735 32.4756 1.75462 32.5942 1.49491C32.6034 1.42097 32.6289 1.35327 32.6669 1.3019C32.7049 1.25054 32.7534 1.21825 32.8052 1.20986C33.0029 0.969149 33.5566 1.2732 33.7544 1.40622C34.2893 1.6975 34.7994 2.07579 35.2749 2.53375C35.4858 2.74912 35.7143 3.16719 35.978 3.26854H36.2944C36.7778 3.42057 37.3184 3.31288 37.771 3.50925C38.5343 3.87549 39.2623 4.37994 39.9375 5.0105C41.93 6.84676 43.5482 9.41319 44.6265 12.4471C44.811 12.9412 44.8857 13.4036 45.0659 13.923C45.3823 14.9872 45.7734 16.0767 46.0898 17.0902C46.3677 18.1169 46.726 19.0945 47.1577 20.004C47.3862 20.4601 48.2871 20.7008 48.6914 20.9415C49.0462 21.1256 49.3939 21.3371 49.7329 21.575C50.2427 22.0311 50.7524 22.5505 51.2358 23.0509C51.4731 23.3169 52.229 23.8554 52.2729 24.3178L52.2554 24.2671Z" fill="#00758F"/>
<path fill-rule="evenodd" clip-rule="evenodd" d="M36.9141 5.37157C36.7049 5.36851 36.4964 5.40688 36.2944 5.48559V5.52993H36.3252C36.4716 5.84164 36.6331 6.138 36.8086 6.41675C36.9272 6.76514 37.0327 7.11353 37.1514 7.46192L37.1821 7.41758C37.2938 7.28989 37.3813 7.12371 37.4366 6.93439C37.4919 6.74508 37.5132 6.53873 37.4985 6.3344C37.4106 6.18237 37.3931 6.03035 37.3184 5.87832C37.2437 5.7263 37.0327 5.55527 36.9141 5.3779V5.37157Z" fill="#00758F"/>
</g>
<defs>
<clipPath id="clip0_104_98">
<rect width="54" height="53" fill="white"/>
</clipPath>
</defs>
</svg>
