<svg width="50" height="50" viewBox="0 0 50 50" fill="none" xmlns="http://www.w3.org/2000/svg">
<path d="M22.7497 0.634756C24.1092 -0.071805 25.8799 -0.0749964 27.2382 0.634756C34.0717 4.14079 40.9073 7.64132 47.7396 11.1495C49.0246 11.8067 49.8842 13.1053 49.8711 14.4498V35.5435C49.8807 36.9436 48.9362 38.2732 47.5804 38.9156C40.7694 42.4023 33.9619 45.8933 27.1521 49.38C25.7645 50.1004 23.9583 50.0449 22.614 49.2654C20.5721 48.1906 18.5266 47.1211 16.4845 46.0474C16.0672 45.8215 15.5968 45.6417 15.3021 45.2743C15.5626 44.9555 16.0284 44.9158 16.4068 44.7766C17.2591 44.5305 18.042 44.1355 18.825 43.7521C19.023 43.6291 19.2648 43.6763 19.4546 43.7864C21.2007 44.6954 22.9313 45.6309 24.6833 46.5312C25.057 46.7271 25.4355 46.467 25.7549 46.3053C32.4386 42.8754 39.1305 39.4583 45.813 36.0273C46.0606 35.9192 46.1975 35.6805 46.1774 35.4342C46.1821 28.4759 46.1786 21.5163 46.1798 14.558C46.2081 14.2786 46.03 14.0216 45.7517 13.9073C38.9643 10.4365 32.1805 6.96047 25.3943 3.48883C25.2767 3.41544 25.1374 3.37606 24.9947 3.37587C24.8521 3.37568 24.7126 3.41469 24.5948 3.48777C17.8086 6.96047 11.0259 10.4397 4.23972 13.9103C3.96244 14.0248 3.77634 14.2775 3.80935 14.558C3.81052 21.5163 3.80935 28.4759 3.80935 35.4353C3.79758 35.5555 3.82664 35.676 3.89263 35.7807C3.95861 35.8854 4.05835 35.9693 4.17841 36.0209C5.98934 36.9534 7.80261 37.8793 9.61472 38.8085C10.6356 39.3075 11.889 39.6039 13.0138 39.2216C14.0063 38.8984 14.7021 37.9787 14.6831 37.0218C14.6925 30.1041 14.6785 23.1853 14.6902 16.2686C14.6654 15.9615 14.9862 15.7078 15.315 15.7367C16.1852 15.7314 17.0564 15.7261 17.9266 15.7388C18.2898 15.7314 18.5397 16.0621 18.4948 16.3715C18.4913 23.333 18.5042 30.2947 18.4889 37.2562C18.4913 39.1115 17.6518 41.1303 15.7618 42.0381C13.4334 43.1334 10.5555 42.9011 8.25525 41.8509C6.26389 40.9484 4.36352 39.8833 2.4075 38.9165C1.04823 38.2777 0.108398 36.9427 0.117966 35.5436V14.4498C0.103711 13.0775 0.997461 11.7553 2.32256 11.1076C9.1324 7.61809 15.9411 4.12589 22.7497 0.634756Z" fill="#8CC84B"/>
<path d="M28.6907 15.2465C31.6607 15.0729 34.8403 15.1436 37.5129 16.4722C39.5822 17.4903 40.7294 19.627 40.7659 21.7144C40.7081 21.9959 40.384 22.1512 40.088 22.1319C39.2262 22.1309 38.3643 22.1426 37.5026 22.1266C37.1371 22.1394 36.9246 21.8333 36.8787 21.5399C36.6311 20.5411 36.0312 19.552 34.9959 19.0702C33.4066 18.3477 31.5639 18.384 29.8308 18.3991C28.5657 18.4601 27.2052 18.5596 26.1334 19.2351C25.3105 19.7468 25.0606 20.7798 25.3543 21.6117C25.6312 22.209 26.3906 22.4018 27.0119 22.5794C30.5912 23.4294 34.3841 23.3449 37.8951 24.4635C39.3487 24.9195 40.7706 25.806 41.2682 27.1879C41.919 29.0401 41.6337 31.2539 40.1825 32.7408C39.0056 33.9644 37.2915 34.6303 35.5819 34.992C33.3076 35.4525 30.9474 35.4642 28.6377 35.2597C26.4659 35.0349 24.2059 34.5168 22.5293 33.1732C21.0956 32.0429 20.3954 30.2817 20.4649 28.5819C20.4815 28.2949 20.7963 28.0947 21.0992 28.1183C21.9669 28.1119 22.8347 28.1098 23.7025 28.1193C24.0491 28.0968 24.3061 28.3688 24.3238 28.6654C24.484 29.617 24.8778 30.6158 25.7917 31.18C27.5554 32.2131 29.7684 32.1424 31.7878 32.1713C33.4609 32.1039 35.339 32.0835 36.7043 31.0794C37.4247 30.5067 37.6381 29.5486 37.4434 28.7243C37.2325 28.0284 36.4308 27.7041 35.7422 27.492C32.2088 26.4771 28.3735 26.8454 24.8743 25.6977C23.4537 25.2418 22.08 24.38 21.5342 23.0548C20.7727 21.1793 21.1216 18.8594 22.725 17.4227C24.2883 15.9936 26.545 15.4433 28.6907 15.2463V15.2465Z" fill="#8CC84B"/>
</svg>
