<svg width="214" height="227" viewBox="0 0 214 227" fill="none" xmlns="http://www.w3.org/2000/svg">
<rect width="214" height="227" fill="#232323"/>
<path d="M107 227C166.094 227 214 176.184 214 113.5C214 50.8157 166.094 0 107 0C47.9055 0 0 50.8157 0 113.5C0 176.184 47.9055 227 107 227Z" fill="#232323"/>
<path d="M168.161 171.859C165.367 176.095 99.4353 174.122 88.4371 174.307C60.4078 150.89 58.1381 114.532 63.9383 94.4844C66.5566 85.4343 73.9857 75.8052 82.8508 73.7793C93.7325 71.2801 103.315 81.7248 107.66 86.4865C121.083 101.167 120.986 116.453 128.474 117.294C136.698 118.215 139.53 98.431 151.324 97.4049C158.617 96.7736 163.815 103.719 164.456 104.587C170.546 112.98 171.206 127.161 167.152 135.395C163.175 143.472 155.378 144.393 155.669 147.498C155.921 150.443 164.107 148.549 167.986 155.258C170.566 159.81 170.818 167.86 168.161 171.859Z" fill="url(#paint0_linear_26_2)"/>
<path opacity="0.5" d="M140.79 116.426L127.871 110.717L128.046 126.818L140.965 132.527L140.79 116.426Z" fill="#FEEFF0"/>
<path d="M166.841 166.858L165.717 63.5691C165.717 63.3058 165.581 63.0163 165.425 62.9378L135.475 49.7568C135.32 49.6779 135.185 49.8358 135.185 50.1251L135.417 72.514L155.532 81.5907C155.688 81.6698 155.804 81.9326 155.804 82.1959L156.735 167.253L166.589 171.647C166.744 171.725 166.88 171.567 166.88 171.278L166.841 166.858Z" fill="url(#paint1_linear_26_2)"/>
<path d="M135.01 93.4567V93.6933L135.03 93.72C135.068 93.7985 135.068 93.9305 135.03 93.9828L134.661 94.4827C134.738 94.6403 134.835 94.746 134.952 94.7984C135.185 94.9036 135.359 94.667 135.359 94.2985C135.379 93.9305 135.223 93.5886 135.01 93.4567ZM134.913 93.4044C134.719 93.3515 134.564 93.5886 134.564 93.9305C134.564 93.9828 134.564 94.0357 134.584 94.1147L134.894 93.6671L134.913 93.641V93.4044Z" fill="#75E0E6"/>
<path d="M134.835 82.9351C134.777 82.9089 134.738 82.9613 134.738 83.0665L134.758 84.4349C134.758 84.5401 134.816 84.6192 134.874 84.6448C134.933 84.6715 134.971 84.6192 134.971 84.5134L134.951 83.1456C134.951 83.0665 134.913 82.9613 134.835 82.9351Z" fill="#75E0E6"/>
<path d="M135.068 103.561C135.01 103.534 134.971 103.587 134.971 103.692L134.991 105.06C134.991 105.166 135.048 105.244 135.107 105.271C135.165 105.297 135.204 105.244 135.204 105.139L135.185 103.771C135.185 103.692 135.126 103.587 135.068 103.561Z" fill="#75E0E6"/>
<path d="M139.53 88.3009C139.51 88.3009 139.51 88.3009 139.49 88.3009L138.928 89.0112C138.909 89.038 138.909 89.0903 138.928 89.1432C138.948 89.1693 138.948 89.1693 138.967 89.1955C138.986 89.1955 138.986 89.1955 139.006 89.1955L139.569 88.4851C139.588 88.459 139.588 88.4066 139.569 88.3537C139.549 88.3276 139.549 88.3009 139.53 88.3009Z" fill="#75E0E6"/>
<path d="M130.975 99.0377C130.956 99.0377 130.956 99.0377 130.936 99.0377L130.374 99.7481C130.355 99.7742 130.355 99.8271 130.374 99.8794C130.393 99.9056 130.393 99.9056 130.413 99.9323C130.432 99.9323 130.432 99.9323 130.452 99.9323L131.014 99.222C131.033 99.1953 131.033 99.1429 131.014 99.09C130.994 99.0639 130.975 99.0377 130.975 99.0377Z" fill="#75E0E6"/>
<path d="M139.103 102.611C139.084 102.611 139.084 102.611 139.065 102.611C139.045 102.637 139.045 102.689 139.065 102.742L139.646 103.953C139.666 103.979 139.666 103.979 139.685 104.005C139.705 104.005 139.705 104.005 139.723 104.005C139.743 103.979 139.743 103.926 139.723 103.874L139.142 102.663C139.142 102.637 139.122 102.637 139.103 102.611Z" fill="#75E0E6"/>
<path d="M130.237 84.1956C130.218 84.1956 130.218 84.1956 130.199 84.1956C130.179 84.2223 130.179 84.2747 130.199 84.3276L130.78 85.5379C130.8 85.564 130.8 85.5641 130.82 85.5902C130.838 85.5902 130.838 85.5902 130.858 85.5902C130.877 85.5641 130.877 85.5117 130.858 85.4588L130.276 84.2485C130.257 84.2223 130.237 84.1956 130.237 84.1956Z" fill="#75E0E6"/>
<path d="M141.528 96.8259L140.713 96.4574C140.655 96.4312 140.616 96.4841 140.616 96.5888C140.616 96.6945 140.674 96.7997 140.733 96.8259L141.547 97.1944C141.605 97.2206 141.644 97.1677 141.644 97.0625C141.644 96.9573 141.586 96.8521 141.528 96.8259Z" fill="#75E0E6"/>
<path d="M129.171 91.4051L128.433 91.0895C128.376 91.0633 128.336 91.1157 128.336 91.1947C128.336 91.2738 128.376 91.3784 128.433 91.4051L129.171 91.7208C129.229 91.747 129.268 91.6946 129.268 91.6156C129.268 91.5104 129.209 91.4051 129.171 91.4051Z" fill="#75E0E6"/>
<path d="M134.874 86.2504C134.835 86.2504 134.816 86.2771 134.816 86.3033L134.894 93.3803V93.6169C134.912 93.6169 134.932 93.6169 134.951 93.6169C134.971 93.6169 134.991 93.6437 135.009 93.6698V93.4332L134.932 86.3562C134.932 86.3033 134.912 86.2504 134.874 86.2504Z" fill="#75E0E6"/>
<path d="M134.951 93.6436C134.933 93.6436 134.913 93.6436 134.894 93.6436C134.894 93.6436 134.874 93.6436 134.874 93.6698L134.564 94.1169L131.886 97.8002C131.848 97.853 131.848 97.9583 131.886 98.0635C131.906 98.1158 131.926 98.142 131.964 98.142C131.984 98.142 132.023 98.142 132.042 98.1158L134.681 94.4854L135.048 93.9855C135.088 93.9326 135.088 93.8279 135.048 93.7222L135.03 93.696C134.991 93.6698 134.971 93.6436 134.951 93.6436Z" fill="#75E0E6"/>
<path d="M154.523 157.942L128.26 146.366L128.357 155.416V155.074L154.621 166.65L154.523 157.942Z" fill="url(#paint2_linear_26_2)"/>
<path d="M149.695 88.4307L144.592 86.1687L144.612 88.0888L149.714 90.3513L149.695 88.4307Z" fill="#75E0E6"/>
<path d="M153.922 102.167L149.325 100.141L149.402 106.402L153.999 108.428L153.922 102.167Z" fill="url(#paint3_linear_26_2)"/>
<path d="M133.284 116.296C131.422 115.481 129.948 117.322 129.967 120.453C130.006 123.557 131.538 126.767 133.4 127.583C135.262 128.398 136.736 126.557 136.717 123.426C136.698 120.321 135.146 117.138 133.284 116.296Z" fill="#B5CDFB"/>
<path d="M106.068 157.021C104.749 158.021 103.198 158.337 101.724 159.994C101.083 160.731 100.443 161.731 99.8612 163.177C99.8612 163.177 98.3484 165.835 96.2338 169.335C96.2338 169.335 96.2338 169.335 96.2338 169.36C92.4904 175.595 86.9232 184.488 84.9056 185.883C83.4897 186.856 80.134 185.488 76.8753 183.672C72.8792 181.463 68.9996 178.568 68.9996 178.568C66.9439 177.384 65.6249 176.227 65.6053 174.569C65.5857 173.07 66.6721 171.201 69.291 168.545C73.054 164.783 77.2053 160.626 80.5217 157.337C80.5413 157.337 80.5413 157.31 80.5413 157.31C83.4706 154.443 85.7398 152.207 86.5545 151.523C88.5912 149.786 90.6475 145.34 92.6647 142.499C93.1303 141.841 93.5768 141.289 94.0419 140.841C94.6044 140.315 95.167 139.973 95.7295 139.947C95.7682 139.947 95.8074 139.947 95.846 139.947C96.2147 139.973 96.6607 140.236 97.1846 140.631C97.1846 140.631 97.1846 140.631 97.2037 140.631C97.5919 140.947 97.9993 141.341 98.4257 141.815C98.4257 141.815 98.4453 141.841 98.5036 141.894C99.6287 143.13 100.87 144.867 102.034 146.708C102.053 146.734 102.073 146.761 102.092 146.788C103.004 148.234 103.857 149.76 104.575 151.181C104.652 151.339 104.711 151.444 104.73 151.496C105.079 152.233 105.409 152.944 105.661 153.575C106.32 155.364 106.553 156.653 106.068 157.021Z" fill="url(#paint4_linear_26_2)"/>
<path d="M72.3553 80.9861H47.6236V83.0644H72.3553V80.9861Z" fill="url(#paint5_linear_26_2)"/>
<path d="M134.505 139.764L128.162 136.949L128.241 145.657L134.602 148.472L134.505 139.764Z" fill="url(#paint6_linear_26_2)"/>
<path d="M72.3553 84.8836H47.6236V86.9618H72.3553V84.8836Z" fill="url(#paint7_linear_26_2)"/>
<path d="M45.4123 80.9861H42.5802V85.1426H45.4123V80.9861Z" fill="url(#paint8_linear_26_2)"/>
<path d="M58.2546 104.613H46.7322V106.034H58.2546V104.613Z" fill="url(#paint9_linear_26_2)"/>
<path d="M68.4572 112.508H58.9522V122.953H68.4572V112.508Z" fill="url(#paint10_linear_26_2)"/>
<path d="M110.491 64.7805H98.4262C98.3102 64.7805 98.2324 64.6491 98.2324 64.491V55.2037C98.2324 55.0462 98.3293 54.9148 98.4262 54.9148H115.516C115.632 54.9148 115.71 55.0462 115.71 55.2037V64.5171C115.71 64.6752 115.612 64.8066 115.516 64.8066H112.994" fill="url(#paint11_linear_26_2)"/>
<path opacity="0.36" d="M171.516 178.278H165.057V180.646H171.516V178.278Z" fill="url(#paint12_linear_26_2)"/>
<path d="M156.949 184.752L155.824 81.9881C155.824 81.7253 155.688 81.4358 155.532 81.3835L132.741 71.333L125.584 68.1764C125.428 68.0973 125.292 68.2549 125.292 68.5444L125.971 130.397L126.03 136.237L126.457 175.78C126.457 176.043 126.592 176.332 126.747 176.411L156.697 189.619C156.851 189.697 156.988 189.539 156.988 189.25L156.949 184.752ZM154.001 108.429L154.059 114.691L149.461 112.665L144.864 110.639L144.806 104.377L144.748 98.1158L149.345 100.141L153.943 102.167L154.001 108.429ZM153.904 100.116L144.71 96.0637L144.69 94.143L153.884 98.1948L153.904 100.116ZM144.67 92.091L144.651 90.1703L147.133 91.2753L147.153 93.196L144.67 92.091ZM149.695 88.4338L149.714 90.3545L144.612 88.1182L144.592 86.198L149.695 88.4338ZM141.121 76.6213C141.256 76.6736 141.373 76.9108 141.373 77.1212C141.373 77.3317 141.276 77.4631 141.14 77.4107C141.004 77.3578 140.888 77.1212 140.888 76.9108C140.888 76.7003 140.985 76.5684 141.121 76.6213ZM140.034 76.1475C140.169 76.2004 140.287 76.437 140.287 76.6475C140.287 76.8841 140.189 77.016 140.054 76.937C139.918 76.8841 139.801 76.6475 139.801 76.437C139.782 76.2266 139.899 76.0952 140.034 76.1475ZM134.835 81.5149C138.987 83.3565 142.42 90.4859 142.498 97.4054C142.575 104.351 139.258 108.508 135.107 106.666C130.956 104.824 127.522 97.6949 127.445 90.7754C127.368 83.8565 130.684 79.6994 134.835 81.5149ZM131.791 167.177L130.821 166.755C130.626 166.677 130.471 166.334 130.452 166.019L130.432 164.414C130.432 164.099 130.588 163.888 130.782 163.967L131.751 164.388C131.945 164.467 132.101 164.808 132.12 165.125L132.14 166.73C132.14 167.045 131.984 167.256 131.791 167.177ZM136.93 169.44L135.96 169.019C135.767 168.939 135.611 168.597 135.592 168.281L135.573 166.677C135.573 166.361 135.728 166.151 135.922 166.229L136.892 166.651C137.086 166.73 137.241 167.071 137.261 167.388L137.279 168.992C137.299 169.335 137.125 169.518 136.93 169.44ZM142.09 171.702L141.121 171.281C140.927 171.201 140.772 170.86 140.752 170.545L140.733 168.939C140.733 168.624 140.888 168.413 141.082 168.493L142.052 168.914C142.246 168.992 142.401 169.335 142.42 169.65L142.439 171.255C142.439 171.597 142.284 171.781 142.09 171.702ZM147.231 173.964L146.261 173.544C146.067 173.465 145.912 173.123 145.892 172.807L145.873 171.201C145.873 170.886 146.029 170.676 146.222 170.755L147.192 171.176C147.386 171.255 147.541 171.597 147.56 171.912L147.58 173.517C147.58 173.859 147.425 174.069 147.231 173.964ZM152.39 176.253L151.42 175.833C151.226 175.754 151.071 175.412 151.052 175.095L151.033 173.49C151.033 173.175 151.188 172.964 151.382 173.043L152.352 173.465C152.545 173.544 152.701 173.886 152.701 174.201L152.72 175.806C152.739 176.122 152.585 176.332 152.39 176.253ZM154.524 157.231L155.009 157.442V158.153L154.524 157.942L154.621 166.651L155.106 166.86V167.571L154.621 167.361L154.641 168.413C154.641 168.676 154.524 168.834 154.369 168.755L128.648 157.417C128.493 157.337 128.357 157.074 128.357 156.811L128.241 146.34L127.601 146.051V145.34L128.241 145.63L128.144 136.922L127.504 136.632V135.922L128.144 136.211L128.105 133.002L128.046 127.503L127.969 127.477L127.407 127.24V126.529L128.046 126.819L127.871 110.718L127.232 110.428V109.718L127.871 110.007L127.853 108.823C127.853 108.56 127.969 108.402 128.125 108.481L153.845 119.821C154.001 119.9 154.136 120.163 154.136 120.426L154.156 121.609L154.641 121.82V122.53L154.156 122.32L154.33 138.421L155.514 138.947V139.657L154.33 139.131L154.524 157.231Z" fill="url(#paint13_linear_26_2)"/>
<path fill-rule="evenodd" clip-rule="evenodd" d="M66.6139 70.2279H47.6239V72.3062H66.6139V70.2279ZM134.835 81.8829C130.801 80.0936 127.581 84.1193 127.658 90.8807C127.736 97.6421 131.053 104.562 135.107 106.324C139.142 108.113 142.361 104.088 142.284 97.3264C142.207 90.5912 138.87 83.6717 134.835 81.8829ZM127.445 90.7749C127.368 83.8559 130.684 79.6994 134.835 81.5144C138.987 83.356 142.42 90.4859 142.498 97.4054C142.575 104.324 139.258 108.508 135.107 106.666C130.956 104.851 127.522 97.7211 127.445 90.7749ZM124.341 138.341C124.342 138.349 124.344 138.356 124.344 138.363C124.346 138.373 124.348 138.382 124.348 138.391C124.365 138.386 124.383 138.379 124.4 138.367C124.632 138.262 124.807 138.131 124.904 137.973C125.816 136.579 128.609 136.342 128.357 138.526C128.298 138.973 128.182 139.42 128.008 139.815C127.309 141.393 125.757 142.682 124.07 143.34C123.135 143.712 122.004 144.552 120.799 145.446C119.278 146.575 117.641 147.79 116.136 148.259C114.875 148.655 113.052 148.628 111.326 148.102L111.325 148.101L111.305 148.102C110.646 148.102 109.967 148.154 109.269 148.259C108.435 148.365 107.582 148.602 106.767 148.97C105.971 149.338 105.254 150.128 104.575 151.18C104.568 151.189 104.563 151.201 104.559 151.208C104.553 151.223 104.548 151.233 104.536 151.233C104.169 149.48 100.335 144.294 98.4649 141.919V141.919C98.8336 141.472 99.2022 141.025 99.5704 140.551C100.288 139.657 100.967 138.736 101.587 137.815C101.859 137.42 102.111 137 102.344 136.579C103.236 134.974 103.954 133.159 104.381 131.975C104.692 131.159 105.176 130.501 105.777 130.08C106.584 129.539 107.367 128.3 108.193 126.991C109.176 125.436 110.22 123.782 111.442 123.082C112.062 123.003 112.896 123.108 113.808 123.293C113.935 123.319 113.988 123.418 114.041 123.516C114.094 123.615 114.147 123.713 114.274 123.74C114.439 123.777 114.674 123.756 114.913 123.734C115.178 123.709 115.448 123.685 115.632 123.74C117.028 124.134 118.502 124.634 119.725 125.081L119.738 125.087C120.038 124.962 120.373 124.821 120.734 124.669V124.669C122.97 123.73 126.141 122.397 127.6 122.082C128.299 121.932 128.962 121.322 129.565 120.768C130.433 119.97 131.174 119.288 131.712 120.267C132.624 121.925 129.792 125.239 128.124 124.713C127.348 125.792 126.552 126.265 125.525 126.503C125.276 126.808 125.005 127.164 124.717 127.544C124.421 127.934 124.106 128.349 123.777 128.758C124.328 131.043 124.33 134.116 124.333 136.671C124.333 137.261 124.333 137.823 124.341 138.341ZM121.451 131.922C121.451 131.922 121.78 135.815 122.129 138.709C121.631 138.709 121.114 138.683 120.578 138.63H120.558H120.539C120.556 138.297 120.57 137.966 120.586 137.639V137.637V137.636V137.636C120.623 136.83 120.659 136.053 120.713 135.342C120.869 133.106 121.451 131.922 121.451 131.922ZM47.6239 74.1216H66.6139V76.2004H47.6239V74.1216ZM56.237 112.507H46.7321V135.474H56.237V112.507ZM38.2745 163.231H52.2406V173.674H38.2745V163.231ZM89.4202 89.3541H96.2094V83.1979H89.4202V89.3541ZM87.6929 89.3541H80.9037V83.1979H87.6929V89.3541ZM80.9132 82.0207H96.2174V80.8104H80.9132V82.0207ZM96.2094 93.9347H89.4202V92.725H96.2094V93.9347ZM80.9037 93.9347H87.6929V92.725H80.9037V93.9347ZM96.2184 103.571H80.9137V97.414H96.2184V103.571ZM80.9137 96.2368H96.2184V95.027H80.9137V96.2368ZM96.2094 91.8351H89.4202V91.23H96.2094V91.8351ZM80.9037 91.8351H87.6929V91.23H80.9037V91.8351ZM87.6929 79.8228H80.9037V79.2177H87.6929V79.8228Z" fill="url(#paint14_linear_26_2)"/>
<path fill-rule="evenodd" clip-rule="evenodd" d="M38.4394 142.3H52.4056V161.243H38.4394V142.3ZM38.7303 142.694V160.848H52.1146V142.694H38.7303Z" fill="url(#paint15_linear_26_2)"/>
<path fill-rule="evenodd" clip-rule="evenodd" d="M40.0597 95.7326H74.8979V96.1273H40.0597V95.7326Z" fill="#75E0E6"/>
<path d="M37.1688 88.2768V61.8364C37.1688 59.6791 38.449 57.9427 40.0396 57.9427H74.8968C76.4875 57.9427 77.7678 59.6791 77.7678 61.8364V88.2768" stroke="url(#paint16_linear_26_2)" stroke-width="0.09375" stroke-miterlimit="10" stroke-linecap="round"/>
<path opacity="0.36" d="M161.721 175.938L160.614 72.6485C160.614 72.3858 160.479 72.0963 160.324 72.0439L130.355 58.8368C130.2 58.7577 130.063 58.9153 130.063 59.2048L130.18 70.2285L155.727 81.8567L156.851 177.99C156.851 178.253 161.469 180.779 161.469 180.779C161.624 180.858 161.759 180.699 161.759 180.411L161.721 175.938Z" fill="url(#paint17_linear_26_2)"/>
<path d="M135.087 105.27C135.029 105.243 134.99 105.138 134.971 105.059L134.951 103.691C134.951 103.586 134.99 103.533 135.048 103.56C135.107 103.586 135.164 103.691 135.164 103.77L135.184 105.138C135.184 105.243 135.146 105.296 135.087 105.27ZM130.413 99.9286C130.393 99.9286 130.393 99.9024 130.374 99.8763C130.354 99.8234 130.354 99.7711 130.374 99.7443L130.936 99.034C130.955 99.034 130.955 99.0078 130.975 99.034C130.994 99.034 130.994 99.0607 131.014 99.0868C131.033 99.1397 131.033 99.1921 131.014 99.2182L130.451 99.9286C130.431 99.9286 130.413 99.9286 130.413 99.9286ZM139.704 104.007C139.684 104.007 139.684 103.98 139.665 103.954L139.083 102.744C139.063 102.691 139.063 102.639 139.083 102.613C139.103 102.613 139.103 102.586 139.122 102.613C139.141 102.613 139.141 102.639 139.16 102.665L139.743 103.875C139.762 103.928 139.762 103.98 139.743 104.007C139.723 104.007 139.704 104.033 139.704 104.007ZM128.395 91.3785C128.336 91.3518 128.298 91.2465 128.279 91.1418C128.279 91.0366 128.317 90.9838 128.376 91.0099L129.191 91.3785C129.249 91.4046 129.288 91.5099 129.306 91.5889C129.306 91.6941 129.268 91.7465 129.209 91.7203L128.395 91.3785ZM140.732 96.8243C140.674 96.7976 140.635 96.6929 140.615 96.5877C140.615 96.482 140.654 96.4296 140.712 96.4558L141.527 96.8243C141.585 96.8505 141.624 96.9557 141.644 97.0348C141.644 97.14 141.604 97.1923 141.547 97.1662L140.732 96.8243ZM136.096 95.2984C135.979 95.2455 135.902 95.0617 135.882 94.8775V94.1671C135.882 93.9828 135.96 93.8776 136.076 93.9305L138.191 94.8513C138.308 94.9036 138.385 95.0879 138.405 95.2722V95.9826C138.405 96.1663 138.326 96.272 138.21 96.2192L136.096 95.2984ZM130.82 85.5908C130.8 85.5908 130.8 85.5641 130.78 85.5379L130.199 84.3276C130.179 84.2747 130.179 84.2224 130.199 84.1962C130.218 84.1962 130.218 84.17 130.238 84.1962C130.257 84.1962 130.257 84.2224 130.276 84.2485L130.859 85.4588C130.877 85.5117 130.877 85.5641 130.859 85.5908C130.839 85.5908 130.839 85.5908 130.82 85.5908ZM134.912 93.4044L134.835 86.3268C134.835 86.2744 134.854 86.2477 134.894 86.2744C134.932 86.2744 134.951 86.3268 134.951 86.3797L135.029 93.4567C135.223 93.5886 135.397 93.9567 135.397 94.2985C135.397 94.667 135.223 94.9036 134.99 94.7984C134.874 94.7461 134.777 94.6409 134.699 94.4828L132.061 98.1137C132.042 98.1399 132.003 98.1399 131.984 98.1399C131.964 98.1399 131.925 98.1137 131.906 98.0608C131.867 97.9818 131.867 97.8504 131.906 97.7975L134.583 94.1142C134.583 94.0619 134.563 94.0095 134.563 93.9305C134.545 93.5619 134.699 93.3515 134.912 93.4044ZM138.967 89.1683C138.947 89.1683 138.947 89.1421 138.928 89.1159C138.909 89.0631 138.909 89.0107 138.928 88.984L139.49 88.2742C139.51 88.2742 139.51 88.2475 139.53 88.2742C139.548 88.2742 139.548 88.3003 139.568 88.3265C139.587 88.3794 139.587 88.4317 139.568 88.4579L139.006 89.1683C138.986 89.1945 138.986 89.1945 138.967 89.1683ZM134.854 84.6432C134.796 84.6171 134.758 84.5118 134.738 84.4328L134.719 83.0649C134.719 82.9597 134.758 82.9068 134.815 82.933C134.874 82.9597 134.932 83.0649 134.932 83.144L134.951 84.5118C134.971 84.6171 134.912 84.6694 134.854 84.6432ZM134.835 81.8808C130.8 80.092 127.581 84.1433 127.658 90.8785C127.735 97.6399 131.072 104.559 135.107 106.322C139.141 108.111 142.361 104.059 142.284 97.3243C142.206 90.5629 138.87 83.6701 134.835 81.8808Z" fill="url(#paint18_linear_26_2)"/>
<path d="M138.21 94.8502L136.097 93.9294C135.98 93.877 135.903 93.9823 135.903 94.166V94.8764C135.903 95.0607 136 95.2449 136.116 95.2978L138.23 96.2186C138.347 96.271 138.424 96.1657 138.424 95.9815V95.2711C138.405 95.0874 138.327 94.9031 138.21 94.8502Z" fill="#FBD8CB"/>
<path d="M128.26 146.365L128.377 156.836C128.377 157.098 128.512 157.362 128.667 157.441L154.388 168.78C154.543 168.859 154.659 168.701 154.659 168.438L154.64 167.386L128.357 155.81V155.467L128.26 146.365ZM153.845 119.793L128.123 108.454C127.969 108.375 127.852 108.533 127.852 108.795L127.871 109.98L154.156 121.556L154.136 120.371C154.117 120.135 154.001 119.871 153.845 119.793Z" fill="url(#paint19_linear_26_2)"/>
<path d="M140.015 76.1486C139.879 76.0957 139.782 76.2271 139.782 76.4381C139.782 76.6485 139.898 76.8852 140.034 76.938C140.17 76.9904 140.267 76.859 140.267 76.6486C140.267 76.4381 140.15 76.2015 140.015 76.1486Z" fill="#FAE9B8"/>
<path d="M141.119 76.6203C140.984 76.5674 140.887 76.6993 140.887 76.9092C140.887 77.1197 141.003 77.3568 141.139 77.4091C141.275 77.462 141.372 77.3306 141.372 77.1197C141.372 76.9092 141.255 76.6993 141.119 76.6203Z" fill="#FAE9B8"/>
<path d="M154.33 139.102L141.411 133.419L141.604 151.546L154.523 157.228L154.33 139.102Z" fill="#B5CDFB"/>
<path d="M141.081 142.656L134.932 139.947L135.029 148.655L141.178 151.365L141.081 142.656Z" fill="url(#paint20_linear_26_2)"/>
<path d="M134.408 130.342L128.046 127.528L128.143 136.236L134.505 139.051L134.408 130.342Z" fill="#B5CDFB"/>
<path d="M131.75 164.36L130.782 163.938C130.587 163.859 130.432 164.044 130.432 164.385L130.451 165.99C130.451 166.307 130.625 166.648 130.82 166.728L131.79 167.148C131.984 167.227 132.139 167.043 132.139 166.701L132.119 165.096C132.119 164.781 131.964 164.439 131.75 164.36Z" fill="#1F818C"/>
<path d="M136.911 166.622L135.941 166.2C135.747 166.122 135.592 166.306 135.592 166.648L135.611 168.252C135.611 168.568 135.786 168.91 135.979 168.99L136.949 169.411C137.143 169.489 137.298 169.306 137.298 168.963L137.279 167.359C137.26 167.043 137.105 166.727 136.911 166.622Z" fill="url(#paint21_linear_26_2)"/>
<path d="M142.051 168.915L141.082 168.494C140.888 168.414 140.733 168.599 140.733 168.94L140.752 170.546C140.752 170.862 140.926 171.204 141.12 171.282L142.09 171.703C142.284 171.782 142.439 171.598 142.439 171.256L142.42 169.651C142.42 169.336 142.245 168.993 142.051 168.915Z" fill="url(#paint22_linear_26_2)"/>
<path d="M147.211 171.172L146.241 170.752C146.047 170.672 145.892 170.857 145.892 171.199L145.912 172.804C145.912 173.119 146.067 173.462 146.28 173.54L147.249 173.961C147.444 174.04 147.599 173.856 147.599 173.513L147.58 171.909C147.56 171.593 147.405 171.251 147.211 171.172Z" fill="url(#paint23_linear_26_2)"/>
<path d="M152.352 173.44L151.382 173.019C151.188 172.939 151.033 173.124 151.033 173.465L151.052 175.071C151.052 175.386 151.207 175.728 151.42 175.807L152.39 176.228C152.585 176.306 152.739 176.123 152.739 175.781L152.72 174.176C152.72 173.86 152.545 173.518 152.352 173.44Z" fill="url(#paint24_linear_26_2)"/>
<path d="M147.113 91.2481L144.65 90.1697L144.669 92.0904L147.153 93.1688L147.113 91.2481Z" fill="#B5CDFB"/>
<path d="M153.884 98.1927L144.69 94.1409L144.71 96.0616L153.904 100.113L153.884 98.1927Z" fill="url(#paint25_linear_26_2)"/>
<path d="M154 108.426L149.402 106.4L149.461 112.662L154.058 114.688L154 108.426Z" fill="url(#paint26_linear_26_2)"/>
<path d="M149.325 100.138L144.728 98.1121L144.805 104.374L144.864 110.635L149.461 112.661L149.403 106.399L149.325 100.138Z" fill="#B5CDFB"/>
<path d="M141.411 133.423L140.984 133.239L141.082 141.947L141.295 142.052V142.763L141.082 142.657L141.178 151.366L141.605 151.551L141.411 133.423ZM141.217 116.612L140.79 116.427L140.965 132.528L141.391 132.713L141.217 116.612Z" fill="url(#paint27_linear_26_2)"/>
<path d="M155.493 138.92L154.33 138.394L141.391 132.711L140.964 132.526L128.046 126.818L127.386 126.528L127.406 127.239L128.046 127.528L134.408 130.343V129.764L134.835 129.948V130.527L140.984 133.237L141.411 133.421L154.33 139.104L155.493 139.63V138.92Z" fill="#7C4BFF"/>
<path d="M134.505 139.05L128.143 136.235L127.503 135.945V136.656L128.143 136.945L134.505 139.734V139.05ZM141.275 142.023L141.061 141.918L134.932 139.234V139.944L141.081 142.654L141.295 142.76L141.275 142.023Z" fill="url(#paint28_linear_26_2)"/>
<path d="M134.835 129.948L134.409 129.764V130.343L134.505 139.051V139.761L134.602 148.47L135.029 148.653L134.933 139.946V139.235L134.835 130.527V129.948Z" fill="url(#paint29_linear_26_2)"/>
<path d="M155.106 166.86L154.621 166.65L128.357 155.074V155.415V155.784L154.64 167.36L155.106 167.57V166.86Z" fill="url(#paint30_linear_26_2)"/>
<path d="M155.009 157.443L154.523 157.232L141.604 151.549L141.178 151.366L135.029 148.656L134.602 148.471L128.241 145.657L127.6 145.367V146.077L128.259 146.366L154.523 157.942L155.009 158.153V157.443Z" fill="url(#paint31_linear_26_2)"/>
<path d="M154.621 121.794L154.136 121.583L127.852 110.007L127.212 109.718V110.428L127.871 110.718L140.79 116.427L141.217 116.611L154.155 122.294L154.621 122.504V121.794Z" fill="#6645FF"/>
<path d="M133.323 118.291C132.12 117.765 131.17 118.949 131.189 120.974C131.208 122.974 132.197 125.026 133.4 125.552C134.603 126.078 135.554 124.895 135.534 122.869C135.495 120.895 134.506 118.844 133.323 118.291Z" fill="url(#paint32_linear_26_2)"/>
<path opacity="0.1" d="M132.566 125.95C132.468 126.976 130.161 130.712 128.123 133.895C127.348 135.106 126.611 136.211 126.049 137.052L125.99 131.212L127.988 128.318L131.246 123.609C131.77 122.872 132.682 123.372 132.682 124.398C132.663 124.871 132.624 125.371 132.566 125.95Z" fill="#161616"/>
<path d="M119.686 125.109C121.839 124.214 125.893 122.451 127.6 122.083C129.307 121.715 130.801 118.61 131.712 120.268C132.624 121.925 129.792 125.24 128.104 124.714C127.348 125.766 126.514 126.293 125.525 126.477C123.798 128.081 122.867 129.266 121.064 131.186C119.957 132.37 117.843 135.974 119.356 137.842C120.85 139.684 122.692 139.131 124.419 138.369" stroke="#161616" stroke-width="0.09375" stroke-miterlimit="10" stroke-linecap="round"/>
<path d="M106.069 157.021C104.75 158.021 103.198 158.337 101.724 159.994C101.084 160.731 100.444 161.731 99.8617 163.177C99.8617 163.177 98.3489 165.835 96.2343 169.335C96.2343 169.335 96.2343 169.335 96.2343 169.36C92.4904 175.595 86.9237 184.488 84.9061 185.883C83.4902 186.856 80.1345 185.488 76.8758 183.672C80.2701 182.804 85.449 180.147 86.4968 178.542C87.8931 176.437 92.9173 168.044 96.4478 163.915C97.6311 162.546 98.4066 161.494 98.9109 160.572C99.9391 158.731 99.9004 157.39 99.9004 155.048C99.9004 151.549 101.297 153.127 99.9004 148.444C99.3183 146.472 98.1932 144.814 97.0877 143.577C95.5552 141.841 94.062 140.841 94.062 140.841C94.624 140.315 95.1871 139.973 95.7491 139.947C95.7883 139.947 95.827 139.947 95.8656 139.947C96.2343 139.973 96.6803 140.236 97.2042 140.631C97.2042 140.631 97.2042 140.631 97.2238 140.631C97.6116 140.947 98.0189 141.341 98.4458 141.815C98.4458 141.815 98.4649 141.841 98.5232 141.894C99.6483 143.13 100.89 144.867 102.054 146.708C102.073 146.734 102.092 146.761 102.112 146.788C103.024 148.234 103.877 149.76 104.595 151.181C104.672 151.339 104.73 151.444 104.75 151.496C105.099 152.233 105.428 152.944 105.681 153.575C106.321 155.364 106.553 156.653 106.069 157.021Z" fill="url(#paint33_linear_26_2)"/>
<path d="M89.0574 181.54C91.7922 177.331 94.3141 172.938 96.2343 169.333C97.9802 166.044 99.2218 163.413 99.6679 162.177C99.6875 162.099 99.7261 162.045 99.7452 161.967C100.211 160.704 100.735 159.756 101.297 159.046C102.733 157.152 104.342 156.758 105.661 155.626C105.991 155.337 105.953 154.627 105.642 153.652C105.429 152.942 105.06 152.101 104.595 151.179C103.935 149.839 103.043 148.313 102.073 146.839C102.054 146.813 102.034 146.787 102.015 146.76C101.355 145.76 100.676 144.787 99.9783 143.892C99.9783 143.892 99.9783 143.892 99.9587 143.866C99.4353 143.182 98.9305 142.551 98.4262 141.998C97.9993 141.498 97.5729 141.078 97.1655 140.683C97.1655 140.683 97.1655 140.683 97.1459 140.683C96.157 139.736 95.284 139.183 94.7019 139.262C94.3724 139.288 94.0424 139.446 93.7129 139.683C91.0941 141.525 88.6114 148.917 85.9538 151.416C85.1196 152.206 83.0442 154.468 80.5223 157.337L80.5032 157.362C75.3238 163.229 68.1855 171.544 65.5672 174.595C64.9267 175.358 64.5581 175.78 64.5581 175.78" stroke="#161616" stroke-width="0.09375" stroke-miterlimit="10" stroke-linecap="round"/>
<path opacity="0.1" d="M128.007 139.842C127.309 141.42 125.756 142.709 124.069 143.367C121.955 144.209 118.833 147.444 116.135 148.287C114.875 148.681 113.051 148.655 111.325 148.128C110.665 148.128 109.986 148.182 109.288 148.287C108.455 148.392 107.601 148.628 106.786 148.997C105.991 149.365 105.273 150.154 104.594 151.207C104.574 151.233 104.574 151.259 104.555 151.259C104.633 151.418 104.691 151.523 104.711 151.575C104.769 151.707 104.711 151.601 104.536 151.286C104.051 150.418 102.771 148.102 101.452 146.024C100.948 145.235 100.443 144.525 99.9777 143.893C99.9777 143.893 99.9777 143.893 99.9581 143.867C99.2404 142.893 98.6588 142.183 98.4644 141.946C98.4257 141.894 98.4066 141.867 98.387 141.867C98.387 141.867 98.4066 141.894 98.4644 141.946C98.833 141.499 99.2017 141.051 99.5704 140.578C100.385 143.156 102.228 147.023 105.855 146.393C106.514 146.287 107.136 146.129 107.717 145.945C107.756 145.919 107.814 145.919 107.852 145.893C111.946 144.603 114.487 142.025 119.531 141.946C119.821 141.946 120.093 141.92 120.364 141.894C121.14 141.841 121.858 141.683 122.518 141.525C122.808 141.446 123.099 141.367 123.371 141.262C125.66 140.525 127.173 139.499 128.007 139.842Z" fill="#161616"/>
<path d="M45.4131 70.1761H42.5811V74.3326H45.4131V70.1761Z" fill="url(#paint34_linear_26_2)"/>
<path d="M34.0269 64.7815H80.6001" stroke="url(#paint35_linear_26_2)" stroke-width="0.09375" stroke-miterlimit="10" stroke-linecap="round"/>
<path d="M74.917 60.6507H40.0597V62.9394H74.917V60.6507Z" fill="url(#paint36_linear_26_2)"/>
<path d="M52.3381 106.85H46.7322V108.27H52.3381V106.85Z" fill="url(#paint37_linear_26_2)"/>
<path d="M67.5265 109.06H46.7322V110.481H67.5265V109.06Z" fill="url(#paint38_linear_26_2)"/>
<path d="M56.237 137.498H46.7322V147.943H56.237V137.498Z" fill="url(#paint39_linear_26_2)"/>
<path d="M99.0084 112.508H84.3631V122.953H99.0084V112.508Z" fill="url(#paint40_linear_26_2)"/>
<path d="M68.4572 125.027H58.9522V135.471H68.4572V125.027Z" fill="url(#paint41_linear_26_2)"/>
<path d="M71.2117 99.0377H43.0271V102.773H71.2117V99.0377Z" fill="url(#paint42_linear_26_2)"/>
<path d="M85.5274 61.1004H84.0141V63.1525H85.5274V61.1004Z" fill="url(#paint43_linear_26_2)"/>
<path d="M88.5526 61.1004H87.0397V63.1525H88.5526V61.1004Z" fill="url(#paint44_linear_26_2)"/>
<path d="M87.0403 63.1509H85.5269V65.2029H87.0403V63.1509Z" fill="url(#paint45_linear_26_2)"/>
<path d="M87.0403 59.02H85.5269V61.0721H87.0403V59.02Z" fill="url(#paint46_linear_26_2)"/>
<path d="M111.988 104.661V110.213H116.082V104.661H111.988Z" fill="url(#paint47_linear_26_2)"/>
<path d="M116.082 110.233V115.784H120.174V110.233H116.082Z" fill="url(#paint48_linear_26_2)"/>
<path d="M107.902 110.216V115.767H111.995V110.216H107.902Z" fill="url(#paint49_linear_26_2)"/>
<path d="M178.209 62.4416H174.115V67.9926H178.209V62.4416Z" fill="url(#paint50_linear_26_2)"/>
<path d="M174.135 67.9916H170.042V73.5427H174.135V67.9916Z" fill="url(#paint51_linear_26_2)"/>
<path d="M174.135 56.8873H170.042V62.4384H174.135V56.8873Z" fill="url(#paint52_linear_26_2)"/>
<path d="M174.135 56.8873H170.042V62.4384H174.135V56.8873Z" fill="url(#paint53_linear_26_2)"/>
<path d="M174.135 56.8873H170.042V62.4384H174.135V56.8873Z" fill="url(#paint54_linear_26_2)"/>
<path d="M174.135 56.8873H170.042V62.4384H174.135V56.8873Z" fill="url(#paint55_linear_26_2)"/>
<path d="M174.135 56.8873H170.042V62.4384H174.135V56.8873Z" fill="url(#paint56_linear_26_2)"/>
<path d="M43.2408 151.968H41.7279V154.02H43.2408V151.968Z" fill="url(#paint57_linear_26_2)"/>
<path d="M46.2664 151.968H44.7534V154.02H46.2664V151.968Z" fill="url(#paint58_linear_26_2)"/>
<path d="M44.7536 154.019H43.2407V156.071H44.7536V154.019Z" fill="url(#paint59_linear_26_2)"/>
<path d="M44.7536 149.917H43.2407V151.97H44.7536V149.917Z" fill="url(#paint60_linear_26_2)"/>
<path fill-rule="evenodd" clip-rule="evenodd" d="M128.983 57.9641L144.85 65.0149L144.76 65.3899L128.893 58.3395L128.983 57.9641Z" fill="url(#paint61_linear_26_2)"/>
<path fill-rule="evenodd" clip-rule="evenodd" d="M131.777 48.0452L151.602 56.8851L151.511 57.2601L131.687 48.42L131.777 48.0452Z" fill="url(#paint62_linear_26_2)"/>
<path fill-rule="evenodd" clip-rule="evenodd" d="M96.7772 53.8775H96.1956V53.4828H96.7772V53.8775Z" fill="url(#paint63_linear_26_2)"/>
<path fill-rule="evenodd" clip-rule="evenodd" d="M98.5364 53.8775H97.9606V53.4828H98.5364V53.8775ZM100.84 53.8775H99.6885V53.4828H100.84V53.8775ZM103.143 53.8775H101.992V53.4828H103.143V53.8775ZM105.447 53.8775H104.295V53.4828H105.447V53.8775ZM107.751 53.8775H106.599V53.4828H107.751V53.8775ZM110.054 53.8775H108.902V53.4828H110.054V53.8775ZM112.358 53.8775H111.205V53.4828H112.358V53.8775ZM114.661 53.8775H113.509V53.4828H114.661V53.8775ZM116.388 53.8775H115.813V53.4828H116.388V53.8775Z" fill="url(#paint64_linear_26_2)"/>
<path fill-rule="evenodd" clip-rule="evenodd" d="M117.552 53.8775H116.971V53.4828H117.552V53.8775Z" fill="url(#paint65_linear_26_2)"/>
<path fill-rule="evenodd" clip-rule="evenodd" d="M117.552 51.7707H96.1956V51.376H117.552V51.7707Z" fill="url(#paint66_linear_26_2)"/>
<path fill-rule="evenodd" clip-rule="evenodd" d="M117.552 49.6424H96.1956V49.2477H117.552V49.6424Z" fill="url(#paint67_linear_26_2)"/>
<path fill-rule="evenodd" clip-rule="evenodd" d="M162.741 62.3892L153.236 58.1008L153.328 57.7264L162.833 62.0148L162.741 62.3892Z" fill="url(#paint68_linear_26_2)"/>
<path fill-rule="evenodd" clip-rule="evenodd" d="M161.014 72.6501L147.281 66.4149L147.373 66.0404L161.108 72.2757L161.014 72.6501Z" fill="url(#paint69_linear_26_2)"/>
<path fill-rule="evenodd" clip-rule="evenodd" d="M53.6669 152.21V151.363H53.9577V152.21H53.6669ZM53.6669 155.599V153.905H53.9577V155.599H53.6669ZM53.6669 158.989V157.293H53.9577V158.989H53.6669ZM53.6669 162.379V160.683H53.9577V162.379H53.6669ZM53.6669 165.768V164.073H53.9577V165.768H53.6669ZM53.6669 169.157V167.463H53.9577V169.157H53.6669ZM53.6669 171.7V170.852H53.9577V171.7H53.6669Z" fill="url(#paint70_linear_26_2)"/>
<path fill-rule="evenodd" clip-rule="evenodd" d="M97.4267 112.274V111.427H97.718V112.274H97.4267ZM97.4267 115.664V113.969H97.718V115.664H97.4267ZM97.4267 119.053V117.358H97.718V119.053H97.4267ZM97.4267 122.443V120.748H97.718V122.443H97.4267ZM97.4267 125.832V124.137H97.718V125.832H97.4267ZM97.4267 129.222V127.527H97.718V129.222H97.4267ZM97.4267 131.764V130.917H97.718V131.764H97.4267Z" fill="url(#paint71_linear_26_2)"/>
<path d="M78.2917 112.508H71.1725V113.718H78.2917V112.508Z" fill="url(#paint72_linear_26_2)"/>
<path d="M81.6664 115.19H71.1725V116.4H81.6664V115.19Z" fill="url(#paint73_linear_26_2)"/>
<path d="M81.6664 117.846H71.1725V119.056H81.6664V117.846Z" fill="url(#paint74_linear_26_2)"/>
<path d="M81.6664 120.502H71.1725V121.713H81.6664V120.502Z" fill="url(#paint75_linear_26_2)"/>
<path d="M81.6664 123.184H71.1725V124.394H81.6664V123.184Z" fill="url(#paint76_linear_26_2)"/>
<path d="M81.6664 128.003H71.1725V129.213H81.6664V128.003Z" fill="url(#paint77_linear_26_2)"/>
<path d="M81.6664 130.659H71.1725V131.869H81.6664V130.659Z" fill="url(#paint78_linear_26_2)"/>
<path d="M47.3913 164.993H40.2724V166.202H47.3913V164.993Z" fill="url(#paint79_linear_26_2)"/>
<path d="M50.7665 167.649H40.2724V168.859H50.7665V167.649Z" fill="url(#paint80_linear_26_2)"/>
<path d="M50.7665 170.306H40.2724V171.516H50.7665V170.306Z" fill="url(#paint81_linear_26_2)"/>
<path d="M47.3913 175.881H40.2724V177.092H47.3913V175.881Z" fill="url(#paint82_linear_26_2)"/>
<path d="M50.7665 178.541H40.2724V179.752H50.7665V178.541Z" fill="url(#paint83_linear_26_2)"/>
<path d="M50.7665 181.198H40.2724V182.407H50.7665V181.198Z" fill="url(#paint84_linear_26_2)"/>
<path d="M96.1956 60.045H117.552" stroke="url(#paint85_linear_26_2)" stroke-width="0.0350401" stroke-miterlimit="10" stroke-linecap="round"/>
<path d="M96.1956 57.9427H117.552" stroke="url(#paint86_linear_26_2)" stroke-width="0.0350401" stroke-miterlimit="10" stroke-linecap="round"/>
<path d="M96.1956 55.81H117.552" stroke="url(#paint87_linear_26_2)" stroke-width="0.0350401" stroke-miterlimit="10" stroke-linecap="round"/>
<path d="M80.9105 106.453H97.5734V81.3536" stroke="url(#paint88_linear_26_2)" stroke-width="0.09375" stroke-miterlimit="10" stroke-linecap="round"/>
<path d="M98.9501 124.608H84.3631V125.817H98.9501V124.608Z" fill="url(#paint89_linear_26_2)"/>
<path d="M98.9501 127.264H84.3631V128.474H98.9501V127.264Z" fill="url(#paint90_linear_26_2)"/>
<path d="M121.024 91.9606H106.341" stroke="url(#paint91_linear_26_2)" stroke-width="0.09375" stroke-miterlimit="10" stroke-linecap="round"/>
<path d="M116.485 97.7483H101.821" stroke="url(#paint92_linear_26_2)" stroke-width="0.09375" stroke-miterlimit="10" stroke-linecap="round"/>
<path d="M116.485 96.5113H101.821" stroke="url(#paint93_linear_26_2)" stroke-width="0.09375" stroke-miterlimit="10" stroke-linecap="round"/>
<path d="M118.366 90.3513H106.341" stroke="url(#paint94_linear_26_2)" stroke-width="0.09375" stroke-miterlimit="10" stroke-linecap="round"/>
<path fill-rule="evenodd" clip-rule="evenodd" d="M166.741 88.1299L166.735 87.3549L167.025 87.3496L167.033 88.1246L166.741 88.1299ZM166.774 91.23L166.758 89.68L167.049 89.6746L167.066 91.2241L166.774 91.23ZM166.807 94.33L166.791 92.78L167.082 92.7746L167.097 94.3246L166.807 94.33ZM166.839 97.4305L166.823 95.88L167.114 95.8747L167.13 97.4247L166.839 97.4305ZM166.871 100.53L166.855 98.98L167.146 98.9747L167.163 100.525L166.871 100.53ZM166.904 103.631L166.888 102.08L167.179 102.075L167.194 103.625L166.904 103.631ZM166.936 106.73L166.921 105.181L167.211 105.175L167.227 106.725L166.936 106.73ZM166.969 109.831L166.952 108.281L167.244 108.275L167.26 109.825L166.969 109.831ZM167.001 112.931L166.985 111.381L167.275 111.375L167.291 112.925L167.001 112.931ZM167.033 116.031L167.016 114.481L167.308 114.475L167.324 116.025L167.033 116.031ZM167.066 119.131L167.049 117.581L167.341 117.575L167.356 119.125L167.066 119.131ZM167.097 122.231L167.082 120.681L167.372 120.675L167.389 122.225L167.097 122.231ZM167.122 124.556L167.114 123.781L167.405 123.775L167.413 124.55L167.122 124.556Z" fill="url(#paint95_linear_26_2)"/>
<path fill-rule="evenodd" clip-rule="evenodd" d="M168.76 95.8912L168.752 95.1157L169.043 95.1098L169.051 95.8853L168.76 95.8912ZM168.792 98.9934L168.776 97.4423L169.067 97.4364L169.083 98.9875L168.792 98.9934ZM168.824 102.096L168.808 100.544L169.099 100.539L169.116 102.09L168.824 102.096ZM168.857 105.198L168.841 103.647L169.132 103.641L169.148 105.192L168.857 105.198ZM168.889 108.3L168.873 106.749L169.164 106.743L169.18 108.294L168.889 108.3ZM168.921 111.403L168.906 109.851L169.196 109.846L169.213 111.397L168.921 111.403ZM168.954 114.505L168.938 112.954L169.229 112.948L169.245 114.499L168.954 114.505ZM168.987 117.607L168.97 116.056L169.261 116.05L169.277 117.601L168.987 117.607ZM169.019 120.709L169.002 119.158L169.294 119.153L169.31 120.704L169.019 120.709ZM169.051 123.811L169.035 122.26L169.326 122.255L169.341 123.806L169.051 123.811ZM169.083 126.914L169.067 125.362L169.358 125.357L169.374 126.908L169.083 126.914ZM169.116 130.016L169.099 128.465L169.391 128.459L169.407 130.011L169.116 130.016ZM169.14 132.343L169.132 131.567L169.423 131.562L169.43 132.337L169.14 132.343Z" fill="url(#paint96_linear_26_2)"/>
<path d="M179.973 177.962H173.514V180.33H179.973V177.962Z" fill="url(#paint97_linear_26_2)"/>
<path d="M154.155 122.292L141.216 116.609L141.391 132.71L154.329 138.393L154.155 122.292Z" fill="url(#paint98_linear_26_2)"/>
<path d="M140.985 133.239L134.835 130.529L134.933 139.238L141.082 141.948L140.985 133.239Z" fill="#75E0E6"/>
<path opacity="0.36" d="M127.542 165.122L127.638 174.41C127.638 174.672 127.774 174.961 127.93 175.041L132.43 177.013L153.651 83.9329C153.651 83.6695 153.514 83.38 153.36 83.3272L147.346 80.6705L127.542 165.122Z" fill="url(#paint99_linear_26_2)"/>
<path d="M131.772 164.407L130.802 163.986C130.608 163.907 130.453 164.091 130.453 164.433L130.472 166.037C130.472 166.353 130.647 166.695 130.84 166.775L131.811 167.196C132.004 167.274 132.16 167.091 132.16 166.748L132.14 165.144C132.121 164.828 131.966 164.513 131.772 164.407Z" fill="url(#paint100_linear_26_2)"/>
<defs>
<linearGradient id="paint0_linear_26_2" x1="116.588" y1="58.5452" x2="116.588" y2="178.403" gradientUnits="userSpaceOnUse">
<stop stop-color="#C2F4FF" stop-opacity="0"/>
<stop offset="1" stop-color="#5E5AFE"/>
</linearGradient>
<linearGradient id="paint1_linear_26_2" x1="151.032" y1="49.7366" x2="151.032" y2="171.666" gradientUnits="userSpaceOnUse">
<stop stop-color="#526EFF"/>
<stop offset="1" stop-color="#7C00E2"/>
</linearGradient>
<linearGradient id="paint2_linear_26_2" x1="129.989" y1="161.075" x2="142.041" y2="145.337" gradientUnits="userSpaceOnUse">
<stop stop-color="#75E0E6"/>
<stop offset="1" stop-color="#75E0E6" stop-opacity="0"/>
</linearGradient>
<linearGradient id="paint3_linear_26_2" x1="149.632" y1="106.151" x2="154.008" y2="103.67" gradientUnits="userSpaceOnUse">
<stop stop-color="#75E0E6"/>
<stop offset="1" stop-color="#75E0E6" stop-opacity="0"/>
</linearGradient>
<linearGradient id="paint4_linear_26_2" x1="86.2997" y1="133.158" x2="86.2997" y2="187.94" gradientUnits="userSpaceOnUse">
<stop stop-color="#7BE6FD"/>
<stop offset="1" stop-color="#1410FA"/>
</linearGradient>
<linearGradient id="paint5_linear_26_2" x1="59.9894" y1="80.9861" x2="59.9894" y2="83.0644" gradientUnits="userSpaceOnUse">
<stop stop-color="#95F9FF"/>
<stop offset="1" stop-color="#6385FF"/>
</linearGradient>
<linearGradient id="paint6_linear_26_2" x1="130.249" y1="146.461" x2="134.671" y2="137.816" gradientUnits="userSpaceOnUse">
<stop stop-color="#FBEFCB"/>
<stop offset="1" stop-color="#FBEFCB" stop-opacity="0"/>
</linearGradient>
<linearGradient id="paint7_linear_26_2" x1="59.9894" y1="84.8836" x2="59.9894" y2="86.9618" gradientUnits="userSpaceOnUse">
<stop stop-color="#95F9FF"/>
<stop offset="1" stop-color="#6385FF"/>
</linearGradient>
<linearGradient id="paint8_linear_26_2" x1="43.9963" y1="80.9861" x2="43.9963" y2="85.1426" gradientUnits="userSpaceOnUse">
<stop stop-color="#95F9FF"/>
<stop offset="1" stop-color="#6385FF"/>
</linearGradient>
<linearGradient id="paint9_linear_26_2" x1="52.4933" y1="104.613" x2="52.4933" y2="106.034" gradientUnits="userSpaceOnUse">
<stop stop-color="#95F9FF"/>
<stop offset="1" stop-color="#6385FF"/>
</linearGradient>
<linearGradient id="paint10_linear_26_2" x1="63.7826" y1="110.975" x2="63.7826" y2="123.344" gradientUnits="userSpaceOnUse">
<stop stop-color="#99EDFF"/>
<stop offset="1" stop-color="#433FFF"/>
</linearGradient>
<linearGradient id="paint11_linear_26_2" x1="107.114" y1="53.463" x2="107.114" y2="65.1778" gradientUnits="userSpaceOnUse">
<stop stop-color="#99EDFF"/>
<stop offset="1" stop-color="#433FFF"/>
</linearGradient>
<linearGradient id="paint12_linear_26_2" x1="168.286" y1="178.278" x2="168.295" y2="182.015" gradientUnits="userSpaceOnUse">
<stop stop-color="#75E0E6"/>
<stop offset="1" stop-color="#FC22CC"/>
</linearGradient>
<linearGradient id="paint13_linear_26_2" x1="141.4" y1="50.3269" x2="141.4" y2="194.193" gradientUnits="userSpaceOnUse">
<stop stop-color="#7BE6FD"/>
<stop offset="1" stop-color="#1410FA"/>
</linearGradient>
<linearGradient id="paint14_linear_26_2" x1="91.2413" y1="55.0462" x2="91.2413" y2="177.554" gradientUnits="userSpaceOnUse">
<stop stop-color="#7BE6FD"/>
<stop offset="1" stop-color="#1410FA"/>
</linearGradient>
<linearGradient id="paint15_linear_26_2" x1="45.4225" y1="142.3" x2="45.4225" y2="161.243" gradientUnits="userSpaceOnUse">
<stop stop-color="#95F9FF"/>
<stop offset="1" stop-color="#6385FF"/>
</linearGradient>
<linearGradient id="paint16_linear_26_2" x1="57.468" y1="57.9427" x2="57.468" y2="88.2768" gradientUnits="userSpaceOnUse">
<stop stop-color="#8E48FF"/>
<stop offset="1" stop-color="#0052CC"/>
</linearGradient>
<linearGradient id="paint17_linear_26_2" x1="145.912" y1="58.8165" x2="145.912" y2="180.799" gradientUnits="userSpaceOnUse">
<stop stop-color="#75E0E6"/>
<stop offset="1" stop-color="#FC22CC"/>
</linearGradient>
<linearGradient id="paint18_linear_26_2" x1="135.091" y1="77.7467" x2="135.091" y2="107.693" gradientUnits="userSpaceOnUse">
<stop stop-color="#99EDFF"/>
<stop offset="1" stop-color="#433FFF"/>
</linearGradient>
<linearGradient id="paint19_linear_26_2" x1="141.256" y1="108.433" x2="141.256" y2="168.8" gradientUnits="userSpaceOnUse">
<stop stop-color="#E0CBFB"/>
<stop offset="1" stop-color="#DDCBFB" stop-opacity="0"/>
</linearGradient>
<linearGradient id="paint20_linear_26_2" x1="138.055" y1="139.947" x2="138.055" y2="151.365" gradientUnits="userSpaceOnUse">
<stop stop-color="#E0CBFB"/>
<stop offset="1" stop-color="#E0CBFB" stop-opacity="0"/>
</linearGradient>
<linearGradient id="paint21_linear_26_2" x1="136.445" y1="166.183" x2="136.445" y2="169.429" gradientUnits="userSpaceOnUse">
<stop stop-color="#95F9FF"/>
<stop offset="1" stop-color="#6385FF"/>
</linearGradient>
<linearGradient id="paint22_linear_26_2" x1="141.586" y1="168.475" x2="141.586" y2="171.721" gradientUnits="userSpaceOnUse">
<stop stop-color="#95F9FF"/>
<stop offset="1" stop-color="#6385FF"/>
</linearGradient>
<linearGradient id="paint23_linear_26_2" x1="146.745" y1="170.733" x2="146.745" y2="173.979" gradientUnits="userSpaceOnUse">
<stop stop-color="#95F9FF"/>
<stop offset="1" stop-color="#6385FF"/>
</linearGradient>
<linearGradient id="paint24_linear_26_2" x1="151.886" y1="173" x2="151.886" y2="176.245" gradientUnits="userSpaceOnUse">
<stop stop-color="#95F9FF"/>
<stop offset="1" stop-color="#6385FF"/>
</linearGradient>
<linearGradient id="paint25_linear_26_2" x1="149.215" y1="100.085" x2="151.258" y2="96.0726" gradientUnits="userSpaceOnUse">
<stop stop-color="#FEEFF0"/>
<stop offset="1" stop-color="#FEEFF0" stop-opacity="0"/>
</linearGradient>
<linearGradient id="paint26_linear_26_2" x1="152.2" y1="112.374" x2="154.05" y2="112.005" gradientUnits="userSpaceOnUse">
<stop stop-color="#7F75F7"/>
<stop offset="1" stop-color="#D64BF9"/>
</linearGradient>
<linearGradient id="paint27_linear_26_2" x1="141.28" y1="141.745" x2="141.617" y2="141.742" gradientUnits="userSpaceOnUse">
<stop stop-color="#7761FF"/>
<stop offset="1" stop-color="#AC4BF9"/>
</linearGradient>
<linearGradient id="paint28_linear_26_2" x1="135.788" y1="140.857" x2="139.549" y2="138.156" gradientUnits="userSpaceOnUse">
<stop stop-color="#7761FF"/>
<stop offset="1" stop-color="#AC4BF9"/>
</linearGradient>
<linearGradient id="paint29_linear_26_2" x1="134.782" y1="143.38" x2="135.038" y2="143.377" gradientUnits="userSpaceOnUse">
<stop stop-color="#7761FF"/>
<stop offset="1" stop-color="#AC4BF9"/>
</linearGradient>
<linearGradient id="paint30_linear_26_2" x1="144.425" y1="164.082" x2="151.437" y2="158.755" gradientUnits="userSpaceOnUse">
<stop stop-color="#7761FF"/>
<stop offset="1" stop-color="#AC4BF9"/>
</linearGradient>
<linearGradient id="paint31_linear_26_2" x1="144.064" y1="154.584" x2="151.242" y2="149.123" gradientUnits="userSpaceOnUse">
<stop stop-color="#7761FF"/>
<stop offset="1" stop-color="#AC4BF9"/>
</linearGradient>
<linearGradient id="paint32_linear_26_2" x1="133.799" y1="123.58" x2="137.645" y2="121.113" gradientUnits="userSpaceOnUse">
<stop stop-color="#5563EE"/>
<stop offset="1" stop-color="#AC4BF9"/>
</linearGradient>
<linearGradient id="paint33_linear_26_2" x1="91.8436" y1="133.158" x2="91.8436" y2="187.94" gradientUnits="userSpaceOnUse">
<stop stop-color="#7BE6FD"/>
<stop offset="1" stop-color="#1410FA"/>
</linearGradient>
<linearGradient id="paint34_linear_26_2" x1="43.997" y1="70.1761" x2="43.997" y2="74.3326" gradientUnits="userSpaceOnUse">
<stop stop-color="#95F9FF"/>
<stop offset="1" stop-color="#6385FF"/>
</linearGradient>
<linearGradient id="paint35_linear_26_2" x1="-nan" y1="-nan" x2="-nan" y2="-nan" gradientUnits="userSpaceOnUse">
<stop stop-color="#8E48FF"/>
<stop offset="1" stop-color="#0052CC"/>
</linearGradient>
<linearGradient id="paint36_linear_26_2" x1="57.7742" y1="60.3147" x2="57.7742" y2="63.0253" gradientUnits="userSpaceOnUse">
<stop stop-color="#99EDFF"/>
<stop offset="1" stop-color="#433FFF"/>
</linearGradient>
<linearGradient id="paint37_linear_26_2" x1="49.5352" y1="106.85" x2="49.5352" y2="108.27" gradientUnits="userSpaceOnUse">
<stop stop-color="#95F9FF"/>
<stop offset="1" stop-color="#6385FF"/>
</linearGradient>
<linearGradient id="paint38_linear_26_2" x1="57.129" y1="109.06" x2="57.129" y2="110.481" gradientUnits="userSpaceOnUse">
<stop stop-color="#95F9FF"/>
<stop offset="1" stop-color="#6385FF"/>
</linearGradient>
<linearGradient id="paint39_linear_26_2" x1="51.5626" y1="135.966" x2="51.5626" y2="148.335" gradientUnits="userSpaceOnUse">
<stop stop-color="#99EDFF"/>
<stop offset="1" stop-color="#433FFF"/>
</linearGradient>
<linearGradient id="paint40_linear_26_2" x1="91.806" y1="110.975" x2="91.806" y2="123.344" gradientUnits="userSpaceOnUse">
<stop stop-color="#99EDFF"/>
<stop offset="1" stop-color="#433FFF"/>
</linearGradient>
<linearGradient id="paint41_linear_26_2" x1="63.7826" y1="123.494" x2="63.7826" y2="135.863" gradientUnits="userSpaceOnUse">
<stop stop-color="#99EDFF"/>
<stop offset="1" stop-color="#433FFF"/>
</linearGradient>
<linearGradient id="paint42_linear_26_2" x1="57.3504" y1="98.4892" x2="57.3504" y2="102.914" gradientUnits="userSpaceOnUse">
<stop stop-color="#99EDFF"/>
<stop offset="1" stop-color="#433FFF"/>
</linearGradient>
<linearGradient id="paint43_linear_26_2" x1="84.7832" y1="60.7991" x2="84.7832" y2="63.2294" gradientUnits="userSpaceOnUse">
<stop stop-color="#99EDFF"/>
<stop offset="1" stop-color="#433FFF"/>
</linearGradient>
<linearGradient id="paint44_linear_26_2" x1="87.8089" y1="60.7991" x2="87.8089" y2="63.2294" gradientUnits="userSpaceOnUse">
<stop stop-color="#99EDFF"/>
<stop offset="1" stop-color="#433FFF"/>
</linearGradient>
<linearGradient id="paint45_linear_26_2" x1="86.296" y1="62.8496" x2="86.296" y2="65.2799" gradientUnits="userSpaceOnUse">
<stop stop-color="#99EDFF"/>
<stop offset="1" stop-color="#433FFF"/>
</linearGradient>
<linearGradient id="paint46_linear_26_2" x1="86.296" y1="58.7187" x2="86.296" y2="61.149" gradientUnits="userSpaceOnUse">
<stop stop-color="#99EDFF"/>
<stop offset="1" stop-color="#433FFF"/>
</linearGradient>
<linearGradient id="paint47_linear_26_2" x1="114.068" y1="103.846" x2="114.068" y2="110.421" gradientUnits="userSpaceOnUse">
<stop stop-color="#99EDFF"/>
<stop offset="1" stop-color="#433FFF"/>
</linearGradient>
<linearGradient id="paint48_linear_26_2" x1="118.162" y1="109.418" x2="118.162" y2="115.992" gradientUnits="userSpaceOnUse">
<stop stop-color="#99EDFF"/>
<stop offset="1" stop-color="#433FFF"/>
</linearGradient>
<linearGradient id="paint49_linear_26_2" x1="109.982" y1="109.401" x2="109.982" y2="115.975" gradientUnits="userSpaceOnUse">
<stop stop-color="#99EDFF"/>
<stop offset="1" stop-color="#433FFF"/>
</linearGradient>
<linearGradient id="paint50_linear_26_2" x1="176.195" y1="61.6265" x2="176.195" y2="68.201" gradientUnits="userSpaceOnUse">
<stop stop-color="#99EDFF"/>
<stop offset="1" stop-color="#433FFF"/>
</linearGradient>
<linearGradient id="paint51_linear_26_2" x1="172.122" y1="67.177" x2="172.122" y2="73.751" gradientUnits="userSpaceOnUse">
<stop stop-color="#99EDFF"/>
<stop offset="1" stop-color="#433FFF"/>
</linearGradient>
<linearGradient id="paint52_linear_26_2" x1="172.122" y1="56.0722" x2="172.122" y2="62.6467" gradientUnits="userSpaceOnUse">
<stop stop-color="#99EDFF"/>
<stop offset="1" stop-color="#433FFF"/>
</linearGradient>
<linearGradient id="paint53_linear_26_2" x1="172.122" y1="56.0722" x2="172.122" y2="62.6467" gradientUnits="userSpaceOnUse">
<stop stop-color="#99EDFF"/>
<stop offset="1" stop-color="#433FFF"/>
</linearGradient>
<linearGradient id="paint54_linear_26_2" x1="172.122" y1="56.0722" x2="172.122" y2="62.6467" gradientUnits="userSpaceOnUse">
<stop stop-color="#99EDFF"/>
<stop offset="1" stop-color="#433FFF"/>
</linearGradient>
<linearGradient id="paint55_linear_26_2" x1="172.122" y1="56.0722" x2="172.122" y2="62.6467" gradientUnits="userSpaceOnUse">
<stop stop-color="#99EDFF"/>
<stop offset="1" stop-color="#433FFF"/>
</linearGradient>
<linearGradient id="paint56_linear_26_2" x1="172.122" y1="56.0722" x2="172.122" y2="62.6467" gradientUnits="userSpaceOnUse">
<stop stop-color="#99EDFF"/>
<stop offset="1" stop-color="#433FFF"/>
</linearGradient>
<linearGradient id="paint57_linear_26_2" x1="42.4968" y1="151.667" x2="42.4968" y2="154.098" gradientUnits="userSpaceOnUse">
<stop stop-color="#99EDFF"/>
<stop offset="1" stop-color="#433FFF"/>
</linearGradient>
<linearGradient id="paint58_linear_26_2" x1="45.5223" y1="151.667" x2="45.5223" y2="154.098" gradientUnits="userSpaceOnUse">
<stop stop-color="#99EDFF"/>
<stop offset="1" stop-color="#433FFF"/>
</linearGradient>
<linearGradient id="paint59_linear_26_2" x1="44.0096" y1="153.718" x2="44.0096" y2="156.147" gradientUnits="userSpaceOnUse">
<stop stop-color="#99EDFF"/>
<stop offset="1" stop-color="#433FFF"/>
</linearGradient>
<linearGradient id="paint60_linear_26_2" x1="44.0096" y1="149.617" x2="44.0096" y2="152.047" gradientUnits="userSpaceOnUse">
<stop stop-color="#99EDFF"/>
<stop offset="1" stop-color="#433FFF"/>
</linearGradient>
<linearGradient id="paint61_linear_26_2" x1="137.363" y1="61.0625" x2="136.392" y2="63.5578" gradientUnits="userSpaceOnUse">
<stop stop-color="#95F9FF"/>
<stop offset="1" stop-color="#6385FF"/>
</linearGradient>
<linearGradient id="paint62_linear_26_2" x1="142.256" y1="51.89" x2="141.058" y2="54.9914" gradientUnits="userSpaceOnUse">
<stop stop-color="#95F9FF"/>
<stop offset="1" stop-color="#6385FF"/>
</linearGradient>
<linearGradient id="paint63_linear_26_2" x1="96.4864" y1="53.4828" x2="96.4864" y2="53.8775" gradientUnits="userSpaceOnUse">
<stop stop-color="#95F9FF"/>
<stop offset="1" stop-color="#6385FF"/>
</linearGradient>
<linearGradient id="paint64_linear_26_2" x1="107.175" y1="53.4828" x2="107.175" y2="53.8775" gradientUnits="userSpaceOnUse">
<stop stop-color="#95F9FF"/>
<stop offset="1" stop-color="#6385FF"/>
</linearGradient>
<linearGradient id="paint65_linear_26_2" x1="117.261" y1="53.4828" x2="117.261" y2="53.8775" gradientUnits="userSpaceOnUse">
<stop stop-color="#95F9FF"/>
<stop offset="1" stop-color="#6385FF"/>
</linearGradient>
<linearGradient id="paint66_linear_26_2" x1="106.874" y1="51.376" x2="106.874" y2="51.7707" gradientUnits="userSpaceOnUse">
<stop stop-color="#95F9FF"/>
<stop offset="1" stop-color="#6385FF"/>
</linearGradient>
<linearGradient id="paint67_linear_26_2" x1="106.874" y1="49.2477" x2="106.874" y2="49.6424" gradientUnits="userSpaceOnUse">
<stop stop-color="#95F9FF"/>
<stop offset="1" stop-color="#6385FF"/>
</linearGradient>
<linearGradient id="paint68_linear_26_2" x1="158.33" y1="59.6716" x2="157.701" y2="61.2207" gradientUnits="userSpaceOnUse">
<stop stop-color="#95F9FF"/>
<stop offset="1" stop-color="#6385FF"/>
</linearGradient>
<linearGradient id="paint69_linear_26_2" x1="154.619" y1="68.7981" x2="153.739" y2="71.0033" gradientUnits="userSpaceOnUse">
<stop stop-color="#95F9FF"/>
<stop offset="1" stop-color="#6385FF"/>
</linearGradient>
<linearGradient id="paint70_linear_26_2" x1="53.8125" y1="151.363" x2="53.8125" y2="171.7" gradientUnits="userSpaceOnUse">
<stop stop-color="#95F9FF"/>
<stop offset="1" stop-color="#6385FF"/>
</linearGradient>
<linearGradient id="paint71_linear_26_2" x1="97.602" y1="126.086" x2="97.7223" y2="126.085" gradientUnits="userSpaceOnUse">
<stop stop-color="#7761FF"/>
<stop offset="1" stop-color="#AC4BF9"/>
</linearGradient>
<linearGradient id="paint72_linear_26_2" x1="74.7321" y1="112.508" x2="74.7321" y2="113.718" gradientUnits="userSpaceOnUse">
<stop stop-color="#95F9FF"/>
<stop offset="1" stop-color="#6385FF"/>
</linearGradient>
<linearGradient id="paint73_linear_26_2" x1="76.4197" y1="115.19" x2="76.4197" y2="116.4" gradientUnits="userSpaceOnUse">
<stop stop-color="#95F9FF"/>
<stop offset="1" stop-color="#6385FF"/>
</linearGradient>
<linearGradient id="paint74_linear_26_2" x1="76.4197" y1="117.846" x2="76.4197" y2="119.056" gradientUnits="userSpaceOnUse">
<stop stop-color="#95F9FF"/>
<stop offset="1" stop-color="#6385FF"/>
</linearGradient>
<linearGradient id="paint75_linear_26_2" x1="76.4197" y1="120.502" x2="76.4197" y2="121.713" gradientUnits="userSpaceOnUse">
<stop stop-color="#95F9FF"/>
<stop offset="1" stop-color="#6385FF"/>
</linearGradient>
<linearGradient id="paint76_linear_26_2" x1="76.4197" y1="123.184" x2="76.4197" y2="124.394" gradientUnits="userSpaceOnUse">
<stop stop-color="#95F9FF"/>
<stop offset="1" stop-color="#6385FF"/>
</linearGradient>
<linearGradient id="paint77_linear_26_2" x1="76.4197" y1="128.003" x2="76.4197" y2="129.213" gradientUnits="userSpaceOnUse">
<stop stop-color="#95F9FF"/>
<stop offset="1" stop-color="#6385FF"/>
</linearGradient>
<linearGradient id="paint78_linear_26_2" x1="76.4197" y1="130.659" x2="76.4197" y2="131.869" gradientUnits="userSpaceOnUse">
<stop stop-color="#95F9FF"/>
<stop offset="1" stop-color="#6385FF"/>
</linearGradient>
<linearGradient id="paint79_linear_26_2" x1="43.8318" y1="164.993" x2="43.8318" y2="166.202" gradientUnits="userSpaceOnUse">
<stop stop-color="#95F9FF"/>
<stop offset="1" stop-color="#6385FF"/>
</linearGradient>
<linearGradient id="paint80_linear_26_2" x1="45.5194" y1="167.649" x2="45.5194" y2="168.859" gradientUnits="userSpaceOnUse">
<stop stop-color="#95F9FF"/>
<stop offset="1" stop-color="#6385FF"/>
</linearGradient>
<linearGradient id="paint81_linear_26_2" x1="45.5194" y1="170.306" x2="45.5194" y2="171.516" gradientUnits="userSpaceOnUse">
<stop stop-color="#95F9FF"/>
<stop offset="1" stop-color="#6385FF"/>
</linearGradient>
<linearGradient id="paint82_linear_26_2" x1="43.8318" y1="175.881" x2="43.8318" y2="177.092" gradientUnits="userSpaceOnUse">
<stop stop-color="#95F9FF"/>
<stop offset="1" stop-color="#6385FF"/>
</linearGradient>
<linearGradient id="paint83_linear_26_2" x1="45.5194" y1="178.541" x2="45.5194" y2="179.752" gradientUnits="userSpaceOnUse">
<stop stop-color="#95F9FF"/>
<stop offset="1" stop-color="#6385FF"/>
</linearGradient>
<linearGradient id="paint84_linear_26_2" x1="45.5194" y1="181.198" x2="45.5194" y2="182.407" gradientUnits="userSpaceOnUse">
<stop stop-color="#95F9FF"/>
<stop offset="1" stop-color="#6385FF"/>
</linearGradient>
<linearGradient id="paint85_linear_26_2" x1="-nan" y1="-nan" x2="-nan" y2="-nan" gradientUnits="userSpaceOnUse">
<stop stop-color="#6304FD"/>
<stop offset="1" stop-color="#0052CC"/>
</linearGradient>
<linearGradient id="paint86_linear_26_2" x1="-nan" y1="-nan" x2="-nan" y2="-nan" gradientUnits="userSpaceOnUse">
<stop stop-color="#6304FD"/>
<stop offset="1" stop-color="#0052CC"/>
</linearGradient>
<linearGradient id="paint87_linear_26_2" x1="-nan" y1="-nan" x2="-nan" y2="-nan" gradientUnits="userSpaceOnUse">
<stop stop-color="#6304FD"/>
<stop offset="1" stop-color="#0052CC"/>
</linearGradient>
<linearGradient id="paint88_linear_26_2" x1="89.2417" y1="81.3536" x2="89.2417" y2="106.453" gradientUnits="userSpaceOnUse">
<stop stop-color="#8E48FF"/>
<stop offset="1" stop-color="#0052CC"/>
</linearGradient>
<linearGradient id="paint89_linear_26_2" x1="91.6566" y1="124.608" x2="91.6566" y2="125.817" gradientUnits="userSpaceOnUse">
<stop stop-color="#95F9FF"/>
<stop offset="1" stop-color="#6385FF"/>
</linearGradient>
<linearGradient id="paint90_linear_26_2" x1="91.6566" y1="127.264" x2="91.6566" y2="128.474" gradientUnits="userSpaceOnUse">
<stop stop-color="#95F9FF"/>
<stop offset="1" stop-color="#6385FF"/>
</linearGradient>
<linearGradient id="paint91_linear_26_2" x1="-nan" y1="-nan" x2="-nan" y2="-nan" gradientUnits="userSpaceOnUse">
<stop stop-color="#8E48FF"/>
<stop offset="1" stop-color="#0052CC"/>
</linearGradient>
<linearGradient id="paint92_linear_26_2" x1="-nan" y1="-nan" x2="-nan" y2="-nan" gradientUnits="userSpaceOnUse">
<stop stop-color="#8E48FF"/>
<stop offset="1" stop-color="#0052CC"/>
</linearGradient>
<linearGradient id="paint93_linear_26_2" x1="-nan" y1="-nan" x2="-nan" y2="-nan" gradientUnits="userSpaceOnUse">
<stop stop-color="#8E48FF"/>
<stop offset="1" stop-color="#0052CC"/>
</linearGradient>
<linearGradient id="paint94_linear_26_2" x1="-nan" y1="-nan" x2="-nan" y2="-nan" gradientUnits="userSpaceOnUse">
<stop stop-color="#8E48FF"/>
<stop offset="1" stop-color="#0052CC"/>
</linearGradient>
<linearGradient id="paint95_linear_26_2" x1="167.074" y1="87.3496" x2="167.074" y2="124.556" gradientUnits="userSpaceOnUse">
<stop stop-color="#95F9FF"/>
<stop offset="1" stop-color="#6385FF"/>
</linearGradient>
<linearGradient id="paint96_linear_26_2" x1="169.091" y1="95.1098" x2="169.091" y2="132.343" gradientUnits="userSpaceOnUse">
<stop stop-color="#95F9FF"/>
<stop offset="1" stop-color="#6385FF"/>
</linearGradient>
<linearGradient id="paint97_linear_26_2" x1="177.358" y1="180.302" x2="177.358" y2="177.672" gradientUnits="userSpaceOnUse">
<stop stop-color="#7761FF"/>
<stop offset="1" stop-color="#AC4BF9"/>
</linearGradient>
<linearGradient id="paint98_linear_26_2" x1="142.077" y1="132.406" x2="153.951" y2="125.224" gradientUnits="userSpaceOnUse">
<stop stop-color="#75E0E6"/>
<stop offset="1" stop-color="#75E0E6" stop-opacity="0"/>
</linearGradient>
<linearGradient id="paint99_linear_26_2" x1="140.596" y1="80.6705" x2="140.596" y2="177.013" gradientUnits="userSpaceOnUse">
<stop stop-color="#75E0E6"/>
<stop offset="1" stop-color="#FC22CC"/>
</linearGradient>
<linearGradient id="paint100_linear_26_2" x1="131.306" y1="163.968" x2="131.306" y2="167.214" gradientUnits="userSpaceOnUse">
<stop stop-color="#95F9FF"/>
<stop offset="1" stop-color="#6385FF"/>
</linearGradient>
</defs>
</svg>
